<svg width="138" height="34" viewBox="0 0 138 34" fill="none" xmlns="http://www.w3.org/2000/svg">
<g clip-path="url(#clip0_518_2832)">
<path fill-rule="evenodd" clip-rule="evenodd" d="M79.3529 28.3329C74.3553 32.0284 67.1115 34.0001 60.8748 34.0001C52.1299 34.0001 44.2573 30.7553 38.3013 25.3585C37.8334 24.9341 38.2527 24.3557 38.8142 24.6862C45.2418 28.4381 53.1893 30.6952 61.3989 30.6952C66.9356 30.6952 73.0263 29.546 78.6266 27.1612C79.4727 26.8006 80.1802 27.717 79.3529 28.3329Z" fill="#FF9900"/>
<path fill-rule="evenodd" clip-rule="evenodd" d="M81.4303 25.948C80.7939 25.1293 77.2076 25.5612 75.5979 25.7527C75.1075 25.8128 75.0326 25.3847 75.4743 25.0767C78.3306 23.06 83.0175 23.6421 83.5641 24.3181C84.1106 24.9979 83.4218 29.7111 80.7377 31.9607C80.3259 32.3062 79.9329 32.1222 80.1163 31.664C80.719 30.1543 82.0704 26.7705 81.4303 25.948Z" fill="#FF9900"/>
<path fill-rule="evenodd" clip-rule="evenodd" d="M75.7103 10.8392V8.87879C75.7103 8.5821 75.9349 8.38306 76.2044 8.38306H84.9531C85.2338 8.38306 85.4584 8.58586 85.4584 8.87879V10.5575C85.4547 10.8392 85.2188 11.2073 84.7996 11.7894L80.2662 18.2828C81.9507 18.2415 83.7289 18.4931 85.2563 19.3569C85.6007 19.5522 85.6943 19.8376 85.7205 20.1193V22.2112C85.7205 22.4966 85.406 22.8308 85.0766 22.6581C82.385 21.2422 78.8099 21.0882 75.8338 22.6731C75.5306 22.8383 75.2124 22.5078 75.2124 22.2224V20.2357C75.2124 19.9165 75.2161 19.3719 75.5343 18.8875L80.7865 11.3312H76.2157C75.9349 11.3312 75.7103 11.1322 75.7103 10.8392Z" fill="black"/>
<path fill-rule="evenodd" clip-rule="evenodd" d="M43.7967 23.0711H41.1351C40.8805 23.0523 40.6784 22.8608 40.6597 22.6167V8.91251C40.6597 8.63836 40.888 8.42053 41.1725 8.42053H43.6545C43.9128 8.43179 44.1187 8.63084 44.1374 8.87871V10.6701H44.1861C44.8337 8.9388 46.0503 8.13135 47.69 8.13135C49.3559 8.13135 50.3966 8.9388 51.1453 10.6701C51.7892 8.9388 53.2529 8.13135 54.8214 8.13135C55.937 8.13135 57.1574 8.59329 57.9024 9.62983C58.7447 10.7828 58.5725 12.4578 58.5725 13.9262L58.5687 22.5754C58.5687 22.8495 58.3404 23.0711 58.0558 23.0711H55.3979C55.1322 23.0523 54.9188 22.8382 54.9188 22.5754V15.312C54.9188 14.7337 54.9712 13.2915 54.8439 12.7432C54.6455 11.8231 54.0503 11.564 53.2791 11.564C52.6352 11.564 51.9614 11.9959 51.6881 12.6869C51.4148 13.3779 51.441 14.5346 51.441 15.312V22.5754C51.441 22.8495 51.2127 23.0711 50.9282 23.0711H48.2703C48.0007 23.0523 47.7911 22.8382 47.7911 22.5754L47.7874 15.312C47.7874 13.7835 48.0382 11.5339 46.1477 11.5339C44.2347 11.5339 44.3096 13.7272 44.3096 15.312V22.5754C44.3096 22.8495 44.0813 23.0711 43.7967 23.0711" fill="black"/>
<path fill-rule="evenodd" clip-rule="evenodd" d="M92.9904 8.13135C96.9398 8.13135 99.0773 11.5339 99.0773 15.8604C99.0773 20.0403 96.7152 23.3565 92.9904 23.3565C89.1121 23.3565 87.0007 19.954 87.0007 15.7139C87.0007 11.4475 89.1383 8.13135 92.9904 8.13135ZM93.0128 10.9293C91.0512 10.9293 90.9277 13.6108 90.9277 15.282C90.9277 16.957 90.9015 20.5323 92.9904 20.5323C95.0531 20.5323 95.1504 17.648 95.1504 15.8904C95.1504 14.7337 95.1017 13.3516 94.7536 12.255C94.4541 11.3011 93.8589 10.9293 93.0128 10.9293Z" fill="black"/>
<path fill-rule="evenodd" clip-rule="evenodd" d="M104.199 23.0711H101.548C101.282 23.0523 101.069 22.8382 101.069 22.5754L101.065 8.86744C101.088 8.61582 101.309 8.42053 101.578 8.42053H104.045C104.277 8.43179 104.468 8.58953 104.52 8.8036V10.8992H104.569C105.314 9.02518 106.359 8.13135 108.197 8.13135C109.391 8.13135 110.555 8.56324 111.304 9.74625C112 10.8429 112 12.6869 112 14.0126V22.6392C111.97 22.8796 111.749 23.0711 111.487 23.0711H108.818C108.575 23.0523 108.373 22.872 108.346 22.6392V15.1956C108.346 13.6971 108.519 11.5039 106.68 11.5039C106.033 11.5039 105.438 11.9395 105.142 12.6005C104.768 13.438 104.719 14.2717 104.719 15.1956V22.5754C104.715 22.8495 104.483 23.0711 104.199 23.0711" fill="black"/>
<path fill-rule="evenodd" clip-rule="evenodd" d="M68.736 16.5252C68.736 17.5655 68.7622 18.433 68.2381 19.3569C67.8151 20.108 67.1413 20.57 66.3963 20.57C65.3743 20.57 64.7753 19.7888 64.7753 18.6358C64.7753 16.36 66.8081 15.9468 68.736 15.9468V16.5252ZM71.4201 23.0336C71.2442 23.1914 70.9896 23.2027 70.7912 23.0975C69.9077 22.3614 69.7467 22.0196 69.2638 21.3173C67.8039 22.8121 66.7669 23.259 64.8764 23.259C62.634 23.259 60.8933 21.8732 60.8933 19.0978C60.8933 16.9308 62.0613 15.4549 63.7309 14.7338C65.1759 14.0953 67.1937 13.9827 68.736 13.8062V13.4606C68.736 12.8259 68.7847 12.0748 68.4103 11.5265C68.0884 11.0345 67.4669 10.8317 66.9166 10.8317C65.9021 10.8317 65 11.3537 64.7791 12.4354C64.7342 12.6757 64.5582 12.9123 64.3149 12.9236L61.7356 12.6457C61.5185 12.5969 61.2752 12.4203 61.3388 12.0861C61.9303 8.94641 64.7604 8 67.291 8C68.5863 8 70.2783 8.34552 71.3003 9.32948C72.5956 10.5425 72.472 12.1612 72.472 13.9226V18.0838C72.472 19.3344 72.9886 19.8827 73.4753 20.5587C73.6438 20.7991 73.6812 21.0882 73.4641 21.2685C72.9212 21.7229 71.9554 22.568 71.4238 23.0412L71.4201 23.0336" fill="black"/>
<path fill-rule="evenodd" clip-rule="evenodd" d="M33.8427 16.5254C33.8427 17.5657 33.8689 18.4333 33.3448 19.3572C32.9218 20.1083 32.2517 20.5702 31.503 20.5702C30.481 20.5702 29.8858 19.7891 29.8858 18.6361C29.8858 16.3602 31.9185 15.9471 33.8427 15.9471V16.5254ZM36.5268 23.0339C36.3508 23.1916 36.0963 23.2029 35.8979 23.0977C35.0144 22.3616 34.8572 22.0199 34.3705 21.3176C32.9105 22.8123 31.8773 23.2592 29.9831 23.2592C27.7445 23.2592 26 21.8734 26 19.098C26 16.9311 27.1717 15.4551 28.8376 14.734C30.2826 14.0956 32.3004 13.9829 33.8427 13.8064V13.4609C33.8427 12.8262 33.8913 12.0751 33.5207 11.5268C33.1951 11.0348 32.5736 10.832 32.0271 10.832C31.0126 10.832 30.1066 11.354 29.8858 12.4356C29.8409 12.676 29.6649 12.9126 29.4253 12.9238L26.8423 12.6459C26.6252 12.5971 26.3856 12.4206 26.4455 12.0863C27.0407 8.94666 29.8671 8.00024 32.3977 8.00024C33.6929 8.00024 35.385 8.34576 36.407 9.32972C37.7023 10.5428 37.5787 12.1614 37.5787 13.9228V18.084C37.5787 19.3346 38.0953 19.8829 38.582 20.559C38.7542 20.7993 38.7916 21.0885 38.5745 21.2688C38.0317 21.7232 37.0659 22.5682 36.5343 23.0414L36.5268 23.0339" fill="black"/>
</g>
<defs>
<clipPath id="clip0_518_2832">
<rect width="86" height="26" fill="white" transform="translate(26 8)"/>
</clipPath>
</defs>
</svg>
