<svg width="95" height="42" viewBox="0 0 95 42" fill="none" xmlns="http://www.w3.org/2000/svg">
<g clip-path="url(#clip0_518_2888)">
<path d="M16.4069 14.4023C15.8067 13.2759 15.0864 12.4713 14.166 11.908C13.2456 11.3448 12.1651 11.0632 10.9246 11.0632C9.28391 11.0632 7.88332 11.6667 6.76285 12.8736C5.64238 14.0805 5.08214 15.6092 5.08214 17.4195C5.08214 19.2299 5.64238 20.7184 6.80286 21.9253C7.96335 23.1322 9.36394 23.6954 11.1247 23.6954C12.4452 23.6954 13.5657 23.4138 14.4461 22.8506C15.3265 22.2874 16.0067 21.4023 16.4069 20.2759H21.6091C20.9688 22.8908 19.7283 24.9023 17.8875 26.3908C16.0468 27.8793 13.8058 28.6034 11.1247 28.6034C9.56403 28.6034 8.12342 28.3218 6.80286 27.7586C5.48231 27.1954 4.2818 26.3908 3.20135 25.2644C2.20093 24.2184 1.44061 23.0517 0.880371 21.6437C0.280118 20.3161 0 18.908 0 17.5C0 16.0115 0.240101 14.6034 0.76032 13.3161C1.28054 12.0287 2.04086 10.8621 3.04128 9.81609C4.16175 8.64942 5.36226 7.76437 6.76285 7.16092C8.12342 6.55747 9.64406 6.23563 11.2047 6.23563C13.7658 6.23563 16.0067 6.95977 17.9275 8.44828C19.8083 9.93678 21.0489 11.908 21.6491 14.4023H16.4069ZM65.3475 8.56896V0H70.1896V28.0805H65.3475V26.3506C64.3871 27.1149 63.3467 27.6782 62.3062 28.0805C61.2258 28.4425 60.0653 28.6437 58.8248 28.6437C57.5042 28.6437 56.2637 28.4425 55.0632 28C53.9027 27.5575 52.8222 26.954 51.9019 26.1494C50.6213 25.023 49.6609 23.7356 48.9806 22.2069C48.3003 20.6782 47.9402 19.1092 47.9402 17.4195C47.9402 15.8506 48.2603 14.3621 48.9006 12.9138C49.5409 11.4655 50.4212 10.2184 51.5817 9.17241C52.5421 8.24713 53.6226 7.56322 54.8631 7.08046C56.1036 6.5977 57.4242 6.35632 58.8248 6.35632C60.1853 6.35632 61.3858 6.51724 62.4263 6.87931C63.4267 7.24138 64.4271 7.8046 65.3475 8.56896ZM65.1474 17.5402C65.1474 15.7299 64.5872 14.2011 63.4267 12.9943C62.2662 11.7874 60.8656 11.1839 59.1449 11.1839C57.4642 11.1839 56.0236 11.7874 54.8231 13.0345C53.6226 14.2816 53.0223 15.7299 53.0223 17.4598C53.0223 19.2299 53.6226 20.7184 54.8231 21.9253C56.0236 23.1322 57.5442 23.6954 59.385 23.6954C60.9857 23.6954 62.3463 23.092 63.4667 21.8851C64.5472 20.7586 65.1474 19.2701 65.1474 17.5402ZM78.0729 19.0287C78.2329 20.5575 78.8332 21.7644 79.8736 22.6494C80.9141 23.5345 82.2746 23.977 83.9153 23.977C85.0358 23.977 85.9962 23.7356 86.8766 23.2931C87.757 22.8103 88.4372 22.1667 88.9575 21.3621H94.2397C93.3593 23.6552 91.9987 25.4655 90.238 26.7529C88.4372 28.0402 86.3964 28.6839 84.0354 28.6839C82.4747 28.6839 81.0341 28.4023 79.7136 27.8391C78.393 27.2759 77.1925 26.4713 76.1521 25.3448C75.1516 24.2988 74.3913 23.092 73.8311 21.7241C73.2709 20.3563 72.9907 18.9483 72.9907 17.5402C72.9907 16.0517 73.2308 14.6839 73.7511 13.3563C74.2713 12.069 74.9916 10.8621 75.992 9.85632C77.0724 8.72989 78.273 7.84483 79.6335 7.20115C80.9941 6.5977 82.3947 6.27586 83.8353 6.27586C85.6761 6.27586 87.3568 6.67816 88.9575 7.52299C90.5581 8.36782 91.8787 9.53448 92.9992 11.0632C93.6794 11.9885 94.1596 12.9943 94.5198 14.1207C94.8399 15.2471 95 16.5345 95 18.023C95 18.1437 95 18.3046 95 18.546C95 18.7874 95 18.9483 95 19.069L78.0729 19.0287ZM89.6778 15.1264C89.2776 13.7184 88.5573 12.6322 87.5569 11.908C86.5564 11.1839 85.3159 10.7816 83.7953 10.7816C82.5147 10.7816 81.3142 11.1839 80.2738 11.9885C79.2334 12.7931 78.5531 13.8391 78.1929 15.1264H89.6778Z" fill="#4A4A4F"/>
<path d="M23.77 17.3793C23.77 15.8908 24.0501 14.4827 24.5704 13.1149C25.1306 11.7873 25.8909 10.5804 26.9314 9.53445C27.9718 8.44824 29.1723 7.64364 30.5329 7.08042C31.8534 6.51721 33.254 6.2356 34.6946 6.2356C36.2153 6.2356 37.6158 6.47697 38.8964 6.99996C40.1769 7.52295 41.3774 8.24709 42.4579 9.29307C43.5784 10.3793 44.4187 11.5862 45.019 12.9942C45.6192 14.4023 45.9394 15.8103 45.9394 17.2988C45.9394 18.908 45.6993 20.3965 45.139 21.7241C44.6188 23.0517 43.8185 24.2586 42.778 25.3448C41.7376 26.431 40.5371 27.2758 39.1765 27.839C37.8159 28.4023 36.3753 28.6839 34.8147 28.6839C33.214 28.6839 31.7734 28.4023 30.4928 27.839C29.1723 27.2758 28.0118 26.431 26.9314 25.3046C25.8909 24.1781 25.1306 22.9712 24.6104 21.6436C24.0101 20.2356 23.77 18.8678 23.77 17.3793ZM28.8121 17.339C28.8121 19.3103 29.3324 20.8793 30.4128 22.0057C31.4933 23.1724 32.9739 23.7356 34.8147 23.7356C36.6154 23.7356 38.056 23.1321 39.1365 21.9655C40.2169 20.7988 40.7372 19.2298 40.7372 17.2184C40.7372 15.4482 40.1769 13.9597 39.0565 12.8333C37.936 11.7069 36.4954 11.1034 34.8147 11.1034C33.0539 11.1034 31.6133 11.6666 30.4928 12.8333C29.3724 14 28.8121 15.4885 28.8121 17.339ZM47.9002 33.7126V32.6666H48.9406V33.7126H47.9002ZM47.9402 41.9195V35.523H48.8606V41.9195H47.9402ZM55.5434 41.9195V37.977C55.5434 36.8505 54.9431 36.2873 53.9827 36.2873C53.0223 36.2873 52.4221 36.8505 52.4221 37.977V41.9195H51.5017V35.523H52.4221V36.2069C52.8623 35.6839 53.5025 35.4425 54.2228 35.4425C54.9031 35.4425 55.4634 35.6436 55.8635 36.0459C56.3037 36.4885 56.5038 37.0919 56.5038 37.8161V41.9195H55.5434ZM60.9857 42C59.9052 42 59.0649 41.7586 58.3846 41.0747L59.0249 40.431C59.5451 40.954 60.2254 41.1551 60.9857 41.1551C62.0261 41.1551 62.6664 40.7931 62.6664 40.0287C62.6664 39.4655 62.3463 39.1436 61.626 39.1034L60.5855 39.023C59.345 38.9023 58.6647 38.3793 58.6647 37.2931C58.6647 36.1264 59.6251 35.4425 60.9857 35.4425C61.9061 35.4425 62.7064 35.6839 63.2667 36.1264L62.6664 36.7299C62.2262 36.3678 61.626 36.2069 60.9857 36.2069C60.0653 36.2069 59.5451 36.6092 59.5451 37.2528C59.5451 37.8161 59.8652 38.1379 60.6656 38.1781L61.706 38.2586C62.8265 38.3793 63.5868 38.7816 63.5868 39.9885C63.5868 41.2758 62.5463 42 60.9857 42ZM67.3083 41.9195C66.2279 41.9195 65.6677 41.1551 65.6677 40.1896V36.2471H64.8673V35.523H65.6677V33.5115H66.588V35.523H67.9486V36.2471H66.588V40.1494C66.588 40.7126 66.8682 41.0747 67.4684 41.0747H67.9486V41.8793L67.3083 41.9195ZM70.0295 33.7126V32.6666H71.0699V33.7126H70.0295ZM70.0695 41.9195V35.523H70.9899V41.9195H70.0695ZM75.3918 41.9195C74.3113 41.9195 73.7511 41.1551 73.7511 40.1896V36.2471H72.9507V35.523H73.7511V33.5115H74.6715V35.523H76.032V36.2471H74.6715V40.1494C74.6715 40.7126 74.9516 41.0747 75.5518 41.0747H76.032V41.8793L75.3918 41.9195ZM82.1546 41.9195V41.1954C81.7144 41.7184 81.0741 42 80.3538 42C79.6736 42 79.1133 41.7988 78.7132 41.3965C78.273 40.954 78.0729 40.3505 78.0729 39.5862V35.523H78.9933V39.4655C78.9933 40.5919 79.5935 41.1551 80.5539 41.1551C81.5143 41.1551 82.1546 40.5919 82.1546 39.4655V35.523H83.075V41.9195H82.1546ZM87.4368 41.9195C86.3564 41.9195 85.7961 41.1551 85.7961 40.1896V36.2471H84.9958V35.523H85.7961V33.5115H86.7165V35.523H88.0771V36.2471H86.7165V40.1494C86.7165 40.7126 86.9966 41.0747 87.5969 41.0747H88.0771V41.8793L87.4368 41.9195ZM90.6782 38.9827C90.6782 40.3908 91.3185 41.1954 92.559 41.1954C93.2793 41.1954 93.7195 40.954 94.2397 40.4712L94.88 41.0344C94.2397 41.6781 93.6394 42.0402 92.559 42.0402C90.8783 42.0402 89.7978 41.0344 89.7978 38.7816C89.7978 36.7299 90.7982 35.523 92.3989 35.523C94.0396 35.523 95 36.7299 95 38.6207V39.0632L90.6782 38.9827ZM93.8395 37.2126C93.5994 36.6494 93.0392 36.2471 92.3589 36.2471C91.6786 36.2471 91.1184 36.6092 90.8783 37.2126C90.7182 37.5747 90.7182 37.7758 90.6782 38.2586H94.0396C93.9996 37.7758 93.9996 37.5747 93.8395 37.2126Z" fill="#E84610"/>
</g>
<defs>
<clipPath id="clip0_518_2888">
<rect width="95" height="42" fill="white"/>
</clipPath>
</defs>
</svg>
