<svg width="176" height="25" viewBox="0 0 176 25" fill="none" xmlns="http://www.w3.org/2000/svg">
<g clip-path="url(#clip0_518_2130)">
<path fill-rule="evenodd" clip-rule="evenodd" d="M14.07 1.19512C14.2254 1.46555 14.3257 1.76406 14.3652 2.07344C14.4047 2.38283 14.3826 2.69697 14.3002 2.99777C14.2177 3.29857 14.0765 3.58008 13.8848 3.82608C13.6931 4.07208 13.4546 4.27771 13.183 4.43112L6.073 8.47112C5.98099 8.5233 5.90441 8.59889 5.85102 8.69021C5.79763 8.78153 5.76934 8.88534 5.769 8.99112V15.3341C5.76934 15.4399 5.79763 15.5437 5.85102 15.635C5.90441 15.7263 5.98099 15.8019 6.073 15.8541L11.701 19.0531C11.7921 19.1049 11.8952 19.1322 12 19.1322C12.1048 19.1322 12.2079 19.1049 12.299 19.0531L17.927 15.8551C18.0192 15.8028 18.0958 15.7271 18.1492 15.6356C18.2026 15.5441 18.2308 15.4401 18.231 15.3341V11.3901L13.171 14.2281C12.6204 14.5371 11.97 14.6159 11.3616 14.4473C10.7531 14.2787 10.236 13.8764 9.923 13.3281C9.76928 13.0569 9.67074 12.7579 9.63305 12.4484C9.59536 12.1389 9.61926 11.825 9.70337 11.5248C9.78749 11.2246 9.93016 10.944 10.1232 10.6991C10.3162 10.4543 10.5557 10.25 10.828 10.0981L18.067 6.03612C20.272 4.80012 23 6.38312 23 8.90112V15.8151C23 17.4351 22.127 18.9301 20.713 19.7341L14.252 23.4051C13.5655 23.795 12.7895 24 12 24C11.2105 24 10.4345 23.795 9.748 23.4051L3.287 19.7341C2.59342 19.3413 2.01636 18.7717 1.61462 18.0833C1.21287 17.3948 1.00079 16.6122 1 15.8151V8.51012C1 6.89012 1.873 5.39512 3.287 4.59212L10.817 0.312117C11.366 0.000134438 12.0161 -0.0821194 12.6255 0.0832947C13.2348 0.248709 13.7541 0.648371 14.07 1.19512Z" fill="url(#paint0_linear_518_2130)"/>
</g>
<path d="M112.299 17H106.709V16.2207L109.662 12.9395C110.1 12.4434 110.4 12.041 110.564 11.7324C110.732 11.4199 110.816 11.0977 110.816 10.7656C110.816 10.3203 110.682 9.95508 110.412 9.66992C110.143 9.38477 109.783 9.24219 109.334 9.24219C108.795 9.24219 108.375 9.39648 108.074 9.70508C107.777 10.0098 107.629 10.4355 107.629 10.9824H106.545C106.545 10.1973 106.797 9.5625 107.301 9.07812C107.809 8.59375 108.486 8.35156 109.334 8.35156C110.127 8.35156 110.754 8.56055 111.215 8.97852C111.676 9.39258 111.906 9.94531 111.906 10.6367C111.906 11.4766 111.371 12.4766 110.301 13.6367L108.016 16.1152H112.299V17ZM118.797 13.3613C118.797 14.6309 118.58 15.5742 118.146 16.1914C117.713 16.8086 117.035 17.1172 116.113 17.1172C115.203 17.1172 114.529 16.8164 114.092 16.2148C113.654 15.6094 113.428 14.707 113.412 13.5078V12.0605C113.412 10.8066 113.629 9.875 114.062 9.26562C114.496 8.65625 115.176 8.35156 116.102 8.35156C117.02 8.35156 117.695 8.64648 118.129 9.23633C118.562 9.82227 118.785 10.7285 118.797 11.9551V13.3613ZM117.713 11.8789C117.713 10.9609 117.584 10.293 117.326 9.875C117.068 9.45312 116.66 9.24219 116.102 9.24219C115.547 9.24219 115.143 9.45117 114.889 9.86914C114.635 10.2871 114.504 10.9297 114.496 11.7969V13.5312C114.496 14.4531 114.629 15.1348 114.895 15.5762C115.164 16.0137 115.57 16.2324 116.113 16.2324C116.648 16.2324 117.045 16.0254 117.303 15.6113C117.564 15.1973 117.701 14.5449 117.713 13.6543V11.8789ZM125.775 17H120.186V16.2207L123.139 12.9395C123.576 12.4434 123.877 12.041 124.041 11.7324C124.209 11.4199 124.293 11.0977 124.293 10.7656C124.293 10.3203 124.158 9.95508 123.889 9.66992C123.619 9.38477 123.26 9.24219 122.811 9.24219C122.271 9.24219 121.852 9.39648 121.551 9.70508C121.254 10.0098 121.105 10.4355 121.105 10.9824H120.021C120.021 10.1973 120.273 9.5625 120.777 9.07812C121.285 8.59375 121.963 8.35156 122.811 8.35156C123.604 8.35156 124.23 8.56055 124.691 8.97852C125.152 9.39258 125.383 9.94531 125.383 10.6367C125.383 11.4766 124.848 12.4766 123.777 13.6367L121.492 16.1152H125.775V17ZM130.486 17H129.396V9.77539L127.211 10.5781V9.59375L130.316 8.42773H130.486V17Z" fill="#12100C" fill-opacity="0.7"/>
<path d="M39.8711 14.0674C39.7568 15.0449 39.395 15.8003 38.7856 16.3335C38.1805 16.8625 37.3743 17.127 36.3672 17.127C35.2754 17.127 34.3994 16.7355 33.7393 15.9526C33.0833 15.1698 32.7554 14.1224 32.7554 12.8105V11.9219C32.7554 11.0628 32.9077 10.3075 33.2124 9.65576C33.5213 9.00407 33.9572 8.50472 34.52 8.15771C35.0828 7.80648 35.7345 7.63086 36.4751 7.63086C37.4569 7.63086 38.244 7.90592 38.8364 8.45605C39.4289 9.00195 39.7738 9.75944 39.8711 10.7285H38.646C38.5402 9.99219 38.3096 9.45898 37.9541 9.12891C37.6029 8.79883 37.1099 8.63379 36.4751 8.63379C35.6965 8.63379 35.085 8.92155 34.6406 9.49707C34.2005 10.0726 33.9805 10.8914 33.9805 11.9536V12.8486C33.9805 13.8516 34.1899 14.6493 34.6089 15.2417C35.0278 15.8341 35.6139 16.1304 36.3672 16.1304C37.0443 16.1304 37.5627 15.978 37.9224 15.6733C38.2863 15.3644 38.5275 14.8291 38.646 14.0674H39.8711ZM41.0454 13.5024C41.0454 12.8296 41.1766 12.2244 41.439 11.687C41.7056 11.1496 42.0737 10.7349 42.5435 10.4429C43.0174 10.1509 43.557 10.0049 44.1621 10.0049C45.0973 10.0049 45.8527 10.3286 46.4282 10.9761C47.008 11.6235 47.2979 12.4847 47.2979 13.5596V13.6421C47.2979 14.3107 47.1688 14.9116 46.9106 15.4448C46.6567 15.9738 46.2907 16.3864 45.8125 16.6826C45.3385 16.9788 44.7926 17.127 44.1748 17.127C43.2438 17.127 42.4884 16.8032 41.9087 16.1558C41.3332 15.5083 41.0454 14.6514 41.0454 13.585V13.5024ZM42.2261 13.6421C42.2261 14.4038 42.4017 15.0153 42.7529 15.4766C43.1084 15.9378 43.5824 16.1685 44.1748 16.1685C44.7715 16.1685 45.2454 15.9357 45.5967 15.4702C45.9479 15.0005 46.1235 14.3446 46.1235 13.5024C46.1235 12.7492 45.9437 12.1398 45.584 11.6743C45.2285 11.2046 44.7546 10.9697 44.1621 10.9697C43.5824 10.9697 43.1147 11.2004 42.7593 11.6616C42.4038 12.1229 42.2261 12.783 42.2261 13.6421ZM54.5723 13.6421C54.5723 14.6873 54.3332 15.5295 53.855 16.1685C53.3768 16.8075 52.7293 17.127 51.9126 17.127C51.0789 17.127 50.423 16.8625 49.9448 16.3335V19.6406H48.7705V10.1318H49.8433L49.9004 10.8936C50.3786 10.3011 51.043 10.0049 51.8936 10.0049C52.7188 10.0049 53.3704 10.3159 53.8486 10.938C54.3311 11.5601 54.5723 12.4255 54.5723 13.5342V13.6421ZM53.3979 13.5088C53.3979 12.7344 53.2329 12.1229 52.9028 11.6743C52.5728 11.2257 52.12 11.0015 51.5444 11.0015C50.8335 11.0015 50.3003 11.3167 49.9448 11.9473V15.229C50.2961 15.8553 50.8335 16.1685 51.5571 16.1685C52.12 16.1685 52.5664 15.9463 52.8965 15.502C53.2308 15.0534 53.3979 14.389 53.3979 13.5088ZM58.2412 15.2798L59.8408 10.1318H61.0977L58.3364 18.0601C57.909 19.2026 57.2298 19.7739 56.2988 19.7739L56.0767 19.7549L55.6387 19.6724V18.7202L55.9561 18.7456C56.3538 18.7456 56.6628 18.6652 56.8828 18.5044C57.1071 18.3436 57.2912 18.0495 57.4351 17.6221L57.6953 16.9238L55.2451 10.1318H56.5273L58.2412 15.2798ZM65.4712 11.1855C65.2935 11.1559 65.1009 11.1411 64.8936 11.1411C64.1234 11.1411 63.6007 11.4691 63.3257 12.125V17H62.1514V10.1318H63.2939L63.313 10.9253C63.6981 10.3117 64.244 10.0049 64.9507 10.0049C65.1792 10.0049 65.3527 10.0345 65.4712 10.0938V11.1855ZM67.8325 17H66.6582V10.1318H67.8325V17ZM66.563 8.31006C66.563 8.11963 66.6201 7.95882 66.7344 7.82764C66.8529 7.69645 67.0264 7.63086 67.2549 7.63086C67.4834 7.63086 67.6569 7.69645 67.7754 7.82764C67.8939 7.95882 67.9531 8.11963 67.9531 8.31006C67.9531 8.50049 67.8939 8.65918 67.7754 8.78613C67.6569 8.91309 67.4834 8.97656 67.2549 8.97656C67.0264 8.97656 66.8529 8.91309 66.7344 8.78613C66.6201 8.65918 66.563 8.50049 66.563 8.31006ZM69.4385 13.5088C69.4385 12.4382 69.686 11.5876 70.1812 10.957C70.6763 10.3223 71.3322 10.0049 72.1489 10.0049C72.9868 10.0049 73.6406 10.3011 74.1104 10.8936L74.1675 10.1318H75.2402V16.835C75.2402 17.7236 74.9757 18.424 74.4468 18.936C73.922 19.4481 73.2153 19.7041 72.3267 19.7041C71.8315 19.7041 71.347 19.5983 70.873 19.3867C70.3991 19.1751 70.0373 18.8853 69.7876 18.5171L70.397 17.8125C70.9006 18.4346 71.5163 18.7456 72.2441 18.7456C72.8154 18.7456 73.2598 18.5848 73.5771 18.2632C73.8988 17.9416 74.0596 17.4888 74.0596 16.9048V16.3145C73.5898 16.8561 72.9487 17.127 72.1362 17.127C71.3322 17.127 70.6805 16.8032 70.1812 16.1558C69.686 15.5083 69.4385 14.626 69.4385 13.5088ZM70.6191 13.6421C70.6191 14.4165 70.7778 15.0259 71.0952 15.4702C71.4126 15.9103 71.8569 16.1304 72.4282 16.1304C73.1688 16.1304 73.7126 15.7939 74.0596 15.1211V11.9854C73.6999 11.3294 73.1603 11.0015 72.4409 11.0015C71.8696 11.0015 71.4232 11.2236 71.1016 11.668C70.7799 12.1123 70.6191 12.7703 70.6191 13.6421ZM78.1919 10.9634C78.7124 10.3244 79.3895 10.0049 80.2231 10.0049C81.6746 10.0049 82.4067 10.8237 82.4194 12.4614V17H81.2451V12.4551C81.2409 11.96 81.1266 11.5939 80.9023 11.3569C80.6823 11.12 80.3374 11.0015 79.8677 11.0015C79.4868 11.0015 79.1525 11.103 78.8647 11.3062C78.577 11.5093 78.3527 11.7759 78.1919 12.106V17H77.0176V7.25H78.1919V10.9634ZM85.771 8.46875V10.1318H87.0532V11.0396H85.771V15.2988C85.771 15.5739 85.8281 15.7812 85.9424 15.9209C86.0566 16.0563 86.2513 16.124 86.5264 16.124C86.6618 16.124 86.848 16.0986 87.085 16.0479V17C86.776 17.0846 86.4756 17.127 86.1836 17.127C85.6589 17.127 85.2632 16.9683 84.9966 16.6509C84.73 16.3335 84.5967 15.8828 84.5967 15.2988V11.0396H83.3462V10.1318H84.5967V8.46875H85.771ZM97.8696 13.2104C97.8696 13.8579 97.6855 14.353 97.3174 14.6958C96.9535 15.0343 96.4372 15.2036 95.7686 15.2036C95.1042 15.2036 94.571 14.9814 94.1689 14.5371C93.7712 14.0885 93.5723 13.4792 93.5723 12.709V12.0107C93.5723 11.266 93.7733 10.6714 94.1753 10.2271C94.5815 9.77848 95.1126 9.5542 95.7686 9.5542C96.4456 9.5542 96.9661 9.7277 97.3301 10.0747C97.694 10.4217 97.876 10.9105 97.876 11.541H96.9492C96.9492 11.1221 96.8477 10.8237 96.6445 10.646C96.4456 10.464 96.1536 10.373 95.7686 10.373C95.3708 10.373 95.0576 10.519 94.8291 10.811C94.6006 11.103 94.4863 11.5093 94.4863 12.0298V12.7471C94.4863 13.2549 94.6006 13.6548 94.8291 13.9468C95.0576 14.2388 95.3708 14.3848 95.7686 14.3848C96.1579 14.3848 96.4499 14.2959 96.6445 14.1182C96.8434 13.9404 96.9429 13.6379 96.9429 13.2104H97.8696ZM92.0742 12.3726C92.0742 13.1004 92.2435 13.7754 92.582 14.3975C92.9206 15.0153 93.3797 15.4998 93.9595 15.8511C94.5435 16.2023 95.174 16.3779 95.8511 16.3779C96.5282 16.3779 97.1566 16.2023 97.7363 15.8511C98.3161 15.4998 98.7752 15.0153 99.1138 14.3975C99.4523 13.7754 99.6216 13.1004 99.6216 12.3726C99.6216 11.6532 99.4544 10.9867 99.1201 10.373C98.7858 9.75944 98.3267 9.27702 97.7427 8.92578C97.1629 8.57031 96.5324 8.39258 95.8511 8.39258C95.174 8.39258 94.5435 8.5682 93.9595 8.91943C93.3755 9.26644 92.9142 9.74886 92.5757 10.3667C92.2414 10.9845 92.0742 11.6532 92.0742 12.3726ZM91.3442 12.3726C91.3442 11.5177 91.541 10.7243 91.9346 9.99219C92.3324 9.26009 92.8804 8.68457 93.5786 8.26562C94.2811 7.84245 95.0386 7.63086 95.8511 7.63086C96.6636 7.63086 97.4189 7.84245 98.1172 8.26562C98.8154 8.68457 99.3613 9.26009 99.7549 9.99219C100.153 10.7243 100.352 11.5177 100.352 12.3726C100.352 13.2062 100.161 13.987 99.7803 14.7148C99.3994 15.4427 98.8577 16.0288 98.1553 16.4731C97.457 16.9132 96.689 17.1333 95.8511 17.1333C95.0174 17.1333 94.2493 16.9154 93.5469 16.4795C92.8486 16.0394 92.307 15.4554 91.9219 14.7275C91.5368 13.9997 91.3442 13.2147 91.3442 12.3726Z" fill="#12100C" fill-opacity="0.7"/>
<path d="M140.896 15.7876C140.583 16.2362 140.145 16.5726 139.583 16.7969C139.024 17.0169 138.372 17.127 137.627 17.127C136.874 17.127 136.206 16.9513 135.622 16.6001C135.038 16.2446 134.585 15.741 134.263 15.0894C133.946 14.4377 133.783 13.6823 133.774 12.8232V12.0171C133.774 10.6248 134.098 9.54574 134.746 8.77979C135.397 8.01383 136.311 7.63086 137.488 7.63086C138.453 7.63086 139.229 7.87842 139.817 8.37354C140.406 8.86442 140.765 9.56266 140.896 10.4683H139.678C139.449 9.24528 138.721 8.63379 137.494 8.63379C136.677 8.63379 136.057 8.92155 135.634 9.49707C135.215 10.0684 135.004 10.8978 135 11.9854V12.7407C135 13.7775 135.236 14.6027 135.71 15.2163C136.184 15.8257 136.826 16.1304 137.634 16.1304C138.091 16.1304 138.491 16.0796 138.833 15.978C139.176 15.8765 139.46 15.7051 139.684 15.4639V13.3882H137.545V12.3979H140.896V15.7876ZM144.026 17H142.852V10.1318H144.026V17ZM142.756 8.31006C142.756 8.11963 142.813 7.95882 142.928 7.82764C143.046 7.69645 143.22 7.63086 143.448 7.63086C143.677 7.63086 143.85 7.69645 143.969 7.82764C144.087 7.95882 144.146 8.11963 144.146 8.31006C144.146 8.50049 144.087 8.65918 143.969 8.78613C143.85 8.91309 143.677 8.97656 143.448 8.97656C143.22 8.97656 143.046 8.91309 142.928 8.78613C142.813 8.65918 142.756 8.50049 142.756 8.31006ZM147.504 8.46875V10.1318H148.787V11.0396H147.504V15.2988C147.504 15.5739 147.562 15.7812 147.676 15.9209C147.79 16.0563 147.985 16.124 148.26 16.124C148.395 16.124 148.581 16.0986 148.818 16.0479V17C148.509 17.0846 148.209 17.127 147.917 17.127C147.392 17.127 146.997 16.9683 146.73 16.6509C146.463 16.3335 146.33 15.8828 146.33 15.2988V11.0396H145.08V10.1318H146.33V8.46875H147.504ZM155.966 13.6421C155.966 14.6873 155.727 15.5295 155.249 16.1685C154.77 16.8075 154.123 17.127 153.306 17.127C152.472 17.127 151.817 16.8625 151.338 16.3335V19.6406H150.164V10.1318H151.237L151.294 10.8936C151.772 10.3011 152.437 10.0049 153.287 10.0049C154.112 10.0049 154.764 10.3159 155.242 10.938C155.725 11.5601 155.966 12.4255 155.966 13.5342V13.6421ZM154.792 13.5088C154.792 12.7344 154.626 12.1229 154.296 11.6743C153.966 11.2257 153.514 11.0015 152.938 11.0015C152.227 11.0015 151.694 11.3167 151.338 11.9473V15.229C151.69 15.8553 152.227 16.1685 152.951 16.1685C153.514 16.1685 153.96 15.9463 154.29 15.502C154.624 15.0534 154.792 14.389 154.792 13.5088ZM157.153 13.5024C157.153 12.8296 157.284 12.2244 157.546 11.687C157.813 11.1496 158.181 10.7349 158.651 10.4429C159.125 10.1509 159.664 10.0049 160.27 10.0049C161.205 10.0049 161.96 10.3286 162.536 10.9761C163.115 11.6235 163.405 12.4847 163.405 13.5596V13.6421C163.405 14.3107 163.276 14.9116 163.018 15.4448C162.764 15.9738 162.398 16.3864 161.92 16.6826C161.446 16.9788 160.9 17.127 160.282 17.127C159.351 17.127 158.596 16.8032 158.016 16.1558C157.441 15.5083 157.153 14.6514 157.153 13.585V13.5024ZM158.333 13.6421C158.333 14.4038 158.509 15.0153 158.86 15.4766C159.216 15.9378 159.69 16.1685 160.282 16.1685C160.879 16.1685 161.353 15.9357 161.704 15.4702C162.055 15.0005 162.231 14.3446 162.231 13.5024C162.231 12.7492 162.051 12.1398 161.691 11.6743C161.336 11.2046 160.862 10.9697 160.27 10.9697C159.69 10.9697 159.222 11.2004 158.867 11.6616C158.511 12.1229 158.333 12.783 158.333 13.6421ZM164.592 13.5088C164.592 12.4551 164.842 11.6087 165.341 10.9697C165.841 10.3265 166.494 10.0049 167.303 10.0049C168.107 10.0049 168.744 10.2799 169.213 10.8301V7.25H170.388V17H169.309L169.251 16.2637C168.782 16.8392 168.128 17.127 167.29 17.127C166.494 17.127 165.845 16.8011 165.341 16.1494C164.842 15.4977 164.592 14.6471 164.592 13.5977V13.5088ZM165.767 13.6421C165.767 14.4207 165.927 15.0301 166.249 15.4702C166.571 15.9103 167.015 16.1304 167.582 16.1304C168.327 16.1304 168.871 15.7961 169.213 15.1274V11.9727C168.862 11.3252 168.323 11.0015 167.595 11.0015C167.019 11.0015 166.571 11.2236 166.249 11.668C165.927 12.1123 165.767 12.7703 165.767 13.6421Z" fill="#12100C" fill-opacity="0.7"/>
<defs>
<linearGradient id="paint0_linear_518_2130" x1="17.558" y1="3.62912" x2="6.356" y2="21.3401" gradientUnits="userSpaceOnUse">
<stop stop-color="#FFB45B"/>
<stop offset="1" stop-color="#FF8A00"/>
</linearGradient>
<clipPath id="clip0_518_2130">
<rect width="24" height="24" fill="white"/>
</clipPath>
</defs>
</svg>
