<svg width="124" height="82" viewBox="0 0 124 82" fill="none" xmlns="http://www.w3.org/2000/svg">
<path d="M77.5802 41.6961C76.8842 42.301 76.0224 42.614 75.0334 42.614H67.7932C66.8055 42.614 65.9623 42.3009 65.2689 41.6961C64.5742 41.0898 64.2163 40.2981 64.2163 39.3368V38.7529C64.2163 37.8337 64.5742 37.0617 65.31 36.4357C66.0472 35.7887 66.8678 35.4757 67.7932 35.4757H72.403V37.6456H67.7932C67.479 37.6456 67.2046 37.7507 66.9315 37.9599C66.657 38.1887 66.5311 38.4399 66.5311 38.7528V39.3368C66.5311 40.0679 66.9513 40.4231 67.7932 40.4231H75.0334C75.8951 40.4231 76.3167 40.0682 76.3167 39.3368V33.7436C76.3167 33.4502 76.1908 33.2005 75.9177 32.9716C75.6432 32.7416 75.3489 32.6361 75.0334 32.6361H64.4271V30.4649H75.0334C75.98 30.4649 76.8006 30.7792 77.5166 31.4263C78.2537 32.0733 78.6103 32.8453 78.6103 33.7435V39.3366C78.6103 40.2979 78.2736 41.0896 77.5802 41.6959V41.6961ZM92.1298 39.3371C91.5624 41.5293 90.3825 42.6143 88.5529 42.6143H85.4373C83.6076 42.6143 82.4291 41.5293 81.8603 39.3371L79.5667 30.4654H82.0287L84.2388 38.9202C84.4921 39.921 85.0183 40.4233 85.7753 40.4233H88.2161C88.9943 40.4233 89.5419 39.921 89.7951 38.9202L91.9827 30.4655H94.4447L92.1298 39.3371ZM108.594 36.6451C107.857 37.2921 107.037 37.6038 106.111 37.6038H101.481V35.4129H106.111C106.405 35.4129 106.68 35.3088 106.953 35.0997C107.226 34.8697 107.375 34.6197 107.375 34.3278V33.7438C107.375 33.0126 106.953 32.6365 106.111 32.6365H98.8511C98.0079 32.6365 97.5876 33.0126 97.5876 33.7438V39.3159C97.5876 39.629 97.715 39.8801 97.988 40.0892C98.2612 40.318 98.5356 40.4232 98.8511 40.4232H109.479V42.5931H98.8511C97.9243 42.5931 97.1051 42.2799 96.3679 41.6541C95.6321 41.0071 95.2728 40.2351 95.2728 39.3159V33.7438C95.2728 32.7615 95.6321 31.9895 96.3268 31.3846C97.0202 30.7796 97.862 30.4653 98.8511 30.4653H106.111C107.1 30.4653 107.942 30.7796 108.637 31.3635C109.33 31.9684 109.689 32.7615 109.689 33.7438V34.3278C109.689 35.2247 109.33 35.9966 108.594 36.645V36.6451ZM34.5714 36.5234C34.5714 37.323 33.9177 37.9713 33.1117 37.9713C32.3056 37.9713 31.6506 37.323 31.6506 36.5234C31.6506 35.7238 32.3056 35.0742 33.1117 35.0742C33.9178 35.0742 34.5714 35.7238 34.5714 36.5234ZM34.5714 31.9001C34.5714 32.6997 33.9177 33.348 33.1117 33.348C32.3056 33.348 31.6506 32.6997 31.6506 31.9001C31.6506 31.0992 32.3056 30.4521 33.1117 30.4521C33.9178 30.4521 34.5714 31.0992 34.5714 31.9001ZM39.4255 41.1463C39.4255 41.9459 38.7719 42.5955 37.9645 42.5955C37.1597 42.5955 36.5061 41.9458 36.5061 41.1463C36.5061 40.3467 37.1597 39.6984 37.9645 39.6984C38.7719 39.6984 39.4255 40.3467 39.4255 41.1463Z" fill="#1D2329"/>
<path d="M39.4255 36.5235C39.4255 37.3231 38.7719 37.9714 37.9645 37.9714C37.1597 37.9714 36.5061 37.323 36.5061 36.5235C36.5061 35.7239 37.1597 35.0742 37.9645 35.0742C38.7719 35.0742 39.4255 35.7239 39.4255 36.5235Z" fill="#3875E1"/>
<path d="M51.7175 39.3161L51.6658 39.5263C51.0797 41.5582 49.925 42.5642 48.1657 42.5642H46.5615C44.7372 42.5642 43.5652 41.4832 42.999 39.3014L40.7134 30.4653H43.1661L45.3669 38.8846C45.6188 39.884 46.1425 40.3824 46.8968 40.3824H47.8302C48.6058 40.3824 49.1507 39.8893 49.4026 38.8911C49.4026 38.8911 49.9741 37.142 51.7175 37.121C51.7175 37.121 53.429 36.9566 54.0164 38.8201L54.0401 38.8831" fill="#1D2329"/>
<path d="M54.0405 38.8829C54.2752 39.8495 54.8625 40.3821 55.6169 40.3821H56.5502C57.3258 40.3821 57.8694 39.8837 58.1226 38.8842L60.3022 30.4662H62.7535L60.448 39.3011C59.8819 41.4841 58.7086 42.5651 56.8856 42.5651H55.2814C53.4584 42.5651 52.2758 41.4762 51.7097 39.2932L54.0405 38.8829ZM26.8295 33.7415C26.8295 33.4481 26.7049 33.1971 26.4344 32.9682C26.1626 32.7367 25.8921 32.6316 25.5793 32.6316H16.5784V40.4393H25.5792C26.4131 40.4393 26.8294 40.0845 26.8294 39.3504L26.8295 33.7415ZM28.1009 41.7162C27.4128 42.3239 26.5577 42.6368 25.5793 42.6368H14.3074V30.4551H25.5793C26.4967 30.4551 27.3081 30.7693 28.0373 31.4177C28.7664 32.0674 29.1204 32.842 29.1204 33.7415V39.3504C29.1204 40.3144 28.7877 41.1087 28.1009 41.7162ZM14.4214 45.8721H17.9931V46.4165H16.5042V50.1146H15.8864V46.4166H14.4214L14.4214 45.8721ZM18.4723 45.8721H19.0279V47.679C19.2612 47.3961 19.5515 47.2556 19.8976 47.2556C20.0858 47.2556 20.2542 47.3014 20.404 47.395C20.5525 47.4882 20.6639 47.6171 20.7368 47.7829C20.8097 47.9473 20.8455 48.1919 20.8455 48.5168V50.1146H20.29V48.38C20.29 48.175 20.2383 48.0106 20.1375 47.8855C20.0354 47.7606 19.9015 47.6976 19.7358 47.6976C19.6125 47.6976 19.4971 47.7274 19.3884 47.7923C19.2797 47.8553 19.1591 47.9593 19.0278 48.1054V50.1149H18.4723L18.4723 45.8721ZM22.0283 48.4281H23.4455C23.4324 48.207 23.3647 48.0362 23.2466 47.9165C23.1286 47.7969 22.9696 47.7365 22.7694 47.7365C22.5692 47.7365 22.4048 47.7969 22.2775 47.9165C22.1502 48.0362 22.0667 48.2073 22.0282 48.4281H22.0283ZM23.9944 48.7621H22.0123C22.027 49.0305 22.1171 49.2434 22.2841 49.4026C22.4498 49.5602 22.6659 49.6408 22.9298 49.6408C23.297 49.6408 23.6364 49.5263 23.9466 49.2989V49.8381C23.7756 49.9511 23.6059 50.0316 23.4376 50.0801C23.2692 50.1285 23.0703 50.1524 22.8449 50.1524C22.5333 50.1524 22.2828 50.0894 22.0906 49.9615C21.8983 49.8325 21.7446 49.6618 21.6292 49.4447C21.5138 49.2288 21.4568 48.9791 21.4568 48.6951C21.4568 48.269 21.5775 47.9218 21.8201 47.6548C22.064 47.3879 22.3783 47.255 22.7667 47.255C23.1406 47.255 23.4375 47.3851 23.6603 47.6456C23.883 47.9062 23.9944 48.2545 23.9944 48.6924V48.7621ZM28.5224 46.3848C28.0425 46.3848 27.646 46.5388 27.3318 46.8464C27.0189 47.154 26.8625 47.5421 26.8625 48.0103C26.8625 48.4653 27.0202 48.8441 27.3358 49.1479C27.65 49.4502 28.0464 49.6016 28.5224 49.6016C28.9917 49.6016 29.3881 49.4465 29.7089 49.136C30.0311 48.827 30.1915 48.4456 30.1915 47.9919C30.1915 47.5276 30.0337 47.1436 29.7182 46.8399C29.4027 46.536 29.0036 46.3848 28.5224 46.3848ZM30.7245 50.3775L30.1106 50.9759C29.9184 50.9684 29.7182 50.9326 29.51 50.8745C29.3018 50.8167 29.0898 50.7365 28.875 50.6351C28.6602 50.5337 28.3738 50.3589 28.0159 50.1144C27.4975 50.0212 27.0692 49.7762 26.7325 49.3792C26.3957 48.9821 26.2287 48.5244 26.2287 48.0063C26.2287 47.3724 26.4448 46.8477 26.8783 46.4321C27.3119 46.0178 27.8607 45.81 28.525 45.81C29.1852 45.81 29.7328 46.0166 30.1703 46.4281C30.6078 46.8397 30.8252 47.3579 30.8252 47.9812C30.8252 48.506 30.6608 48.9663 30.3294 49.3634C29.9992 49.7606 29.571 50.0105 29.0473 50.1144L29.2091 50.1747C29.7116 50.3667 30.0748 50.4625 30.2962 50.4625C30.4182 50.4625 30.5614 50.4364 30.7245 50.3772V50.3775ZM33.3277 50.1139V49.7561C33.2084 49.8836 33.0731 49.9835 32.9193 50.0547C32.7669 50.1244 32.6144 50.1598 32.462 50.1598C32.283 50.1598 32.1186 50.1166 31.9674 50.0282C31.8176 49.9402 31.7036 49.8206 31.6254 49.6692C31.5485 49.5194 31.51 49.2681 31.51 48.9183V47.3165H32.0669V48.9118C32.0669 49.2063 32.1093 49.4115 32.1955 49.5272C32.2803 49.6443 32.4301 49.7021 32.6449 49.7021C32.9127 49.7021 33.1407 49.5731 33.3277 49.3154V47.3165H33.8832V50.1137L33.3277 50.1139ZM35.9307 49.5563V48.7239L35.5582 48.8674C35.3686 48.9424 35.2347 49.0173 35.1552 49.0937C35.077 49.1701 35.0385 49.2648 35.0385 49.3793C35.0385 49.4948 35.0757 49.5895 35.1499 49.6633C35.2241 49.7356 35.3196 49.7725 35.4389 49.7725C35.6152 49.7725 35.7796 49.7002 35.9308 49.5567L35.9307 49.5563ZM36.4796 48.4257V49.6145C36.4796 49.7092 36.5116 49.7566 36.5778 49.7566C36.6454 49.7566 36.7501 49.7081 36.8946 49.6093V49.9485C36.7687 50.0276 36.6666 50.0813 36.591 50.1103C36.5141 50.1402 36.4345 50.1536 36.351 50.1536C36.1137 50.1536 35.9732 50.0615 35.9308 49.8788C35.6934 50.0615 35.4402 50.1536 35.1711 50.1536C34.9736 50.1536 34.8105 50.0891 34.6792 49.9601C34.548 49.8311 34.4817 49.6693 34.4817 49.4748C34.4817 49.2985 34.5453 49.1408 34.6726 49.0014C34.8012 48.8635 34.9815 48.7528 35.2175 48.6715L35.9308 48.4281V48.2782C35.9308 47.9375 35.761 47.7679 35.423 47.7679C35.1194 47.7679 34.8238 47.923 34.536 48.2335V47.6325C34.7521 47.3813 35.0637 47.2551 35.4694 47.2551C35.773 47.2551 36.017 47.3341 36.2012 47.4918C36.2622 47.5432 36.3166 47.61 36.3656 47.6942C36.4147 47.7785 36.4465 47.8627 36.4584 47.9466C36.4716 48.0308 36.4795 48.19 36.4795 48.4253L36.4796 48.4257ZM37.9294 47.3171V47.659C38.1786 47.3895 38.461 47.2553 38.7779 47.2553C38.9529 47.2553 39.1173 47.3 39.2684 47.3906C39.4196 47.4812 39.5335 47.6049 39.6131 47.7626C39.6913 47.9192 39.7311 48.169 39.7311 48.5109V50.114H39.1743V48.5135C39.1743 48.2254 39.1306 48.0204 39.043 47.8981C38.9542 47.7743 38.807 47.7128 38.6015 47.7128C38.3377 47.7128 38.1136 47.8429 37.9293 48.1021V50.1142H37.358V47.3169L37.9294 47.3171ZM40.0986 47.7594L41.1486 46.735V47.3175H42.0409V47.8146H41.1486V49.1837C41.1486 49.5031 41.2812 49.6637 41.549 49.6637C41.7492 49.6637 41.96 49.5992 42.1828 49.4691V49.9819C41.968 50.1016 41.7346 50.1609 41.4814 50.1609C41.2269 50.1609 41.0147 50.0874 40.8464 49.9387C40.795 49.8955 40.7503 49.845 40.7138 49.7888C40.6792 49.7322 40.6502 49.6599 40.6276 49.5693C40.6039 49.4798 40.5919 49.3076 40.5919 49.0551V47.8149H40.0987L40.0986 47.7594ZM44.3964 50.1139V49.7561C44.2771 49.8836 44.1419 49.9835 43.9881 50.0547C43.8356 50.1244 43.6832 50.1598 43.5307 50.1598C43.3517 50.1598 43.1873 50.1166 43.0362 50.0282C42.885 49.9402 42.771 49.8206 42.6941 49.6692C42.6172 49.5194 42.5788 49.2681 42.5788 48.9183V47.3165H43.1356V48.9118C43.1356 49.2063 43.178 49.4115 43.2642 49.5272C43.3491 49.6443 43.4989 49.7021 43.7136 49.7021C43.9815 49.7021 44.2095 49.5731 44.3964 49.3154V47.3165H44.9519V50.1137L44.3964 50.1139ZM48.0282 48.0842V50.1134H47.4647V48.5497C47.4647 48.2381 47.4223 48.0211 47.3388 47.8975C47.2553 47.7752 47.1094 47.7133 46.9013 47.7133C46.7859 47.7133 46.6785 47.7394 46.5818 47.795C46.485 47.8501 46.3749 47.9463 46.2503 48.0842V50.1135H45.6948V47.3176H46.2503V47.6859C46.534 47.3992 46.8125 47.2545 47.0842 47.2545C47.4409 47.2545 47.718 47.4267 47.9142 47.7687C48.2111 47.4268 48.5214 47.2545 48.8449 47.2545C49.118 47.2545 49.3421 47.3544 49.5184 47.5531C49.6947 47.7518 49.7822 48.0555 49.7822 48.4631V50.1136H49.2267V48.4513C49.2267 48.2187 49.179 48.0397 49.0835 47.9147C48.9881 47.791 48.8502 47.7295 48.6712 47.7295C48.4418 47.7295 48.2271 47.848 48.0282 48.0844V48.0842ZM56.0651 49.1274V49.7954C55.6157 50.0389 55.0973 50.1611 54.5086 50.1611C54.0313 50.1611 53.6256 50.065 53.2929 49.8745C52.9601 49.6836 52.6963 49.4221 52.5027 49.088C52.3092 48.7525 52.2111 48.391 52.2111 48.0017C52.2111 47.3837 52.4338 46.8642 52.8779 46.4421C53.3221 46.0212 53.8696 45.8095 54.5206 45.8095C54.97 45.8095 55.4685 45.9265 56.0187 46.1592V46.8128C55.5176 46.5276 55.0297 46.3854 54.551 46.3854C54.0619 46.3854 53.6548 46.5378 53.3313 46.8456C53.0078 47.1532 52.8461 47.5387 52.8461 48.0003C52.8461 48.4672 53.0052 48.8512 53.3234 49.151C53.6429 49.4507 54.0499 49.6008 54.5457 49.6008C55.0641 49.6008 55.5706 49.4431 56.0651 49.1273L56.0651 49.1274ZM58.0196 47.8066C57.7531 47.8066 57.5357 47.8935 57.3647 48.0683C57.1936 48.242 57.1087 48.4628 57.1087 48.7324C57.1087 48.9994 57.1963 49.2177 57.3713 49.386C57.5449 49.5557 57.7703 49.6399 58.0435 49.6399C58.3166 49.6399 58.5393 49.5545 58.713 49.3834C58.8866 49.2123 58.9728 48.9942 58.9728 48.7259C58.9728 48.4616 58.8826 48.2419 58.7023 48.0683C58.5207 47.8935 58.294 47.8066 58.0196 47.8066L58.0196 47.8066ZM58.0489 47.3095C58.4758 47.3095 58.8311 47.4463 59.1135 47.7212C59.3959 47.9959 59.5364 48.3406 59.5364 48.7562C59.5364 49.1599 59.3932 49.4939 59.1068 49.7609C58.8205 50.0278 58.4599 50.1607 58.0237 50.1607C57.6034 50.1607 57.2521 50.0253 56.9697 49.7543C56.6859 49.4848 56.5454 49.1467 56.5454 48.7417C56.5454 48.3314 56.6873 47.9908 56.9736 47.7185C57.2587 47.4464 57.618 47.3096 58.0488 47.3096L58.0489 47.3095ZM62.463 48.0842V50.1134H61.8995V48.5497C61.8995 48.2381 61.8571 48.0211 61.7736 47.8975C61.6901 47.7752 61.5442 47.7133 61.3361 47.7133C61.2207 47.7133 61.1133 47.7394 61.0166 47.795C60.9198 47.8501 60.8097 47.9463 60.6851 48.0842V50.1135H60.1296V47.3176H60.6851V47.6859C60.9688 47.3992 61.2472 47.2545 61.519 47.2545C61.8757 47.2545 62.1528 47.4267 62.349 47.7687C62.6459 47.4268 62.9562 47.2545 63.2797 47.2545C63.5528 47.2545 63.7769 47.3544 63.9532 47.5531C64.1295 47.7518 64.217 48.0555 64.217 48.4631V50.1136H63.6615V48.4513C63.6615 48.2187 63.6138 48.0397 63.5183 47.9147C63.4229 47.791 63.285 47.7295 63.106 47.7295C62.8767 47.7295 62.6619 47.848 62.463 48.0844L62.463 48.0842ZM65.9445 47.8377H65.5507V49.5525C65.7218 49.642 65.9007 49.6867 66.0877 49.6867C66.3489 49.6867 66.561 49.5973 66.7281 49.4172C66.8938 49.2372 66.976 49.0042 66.976 48.7215C66.976 48.5389 66.9375 48.3782 66.858 48.2389C66.7798 48.0995 66.6737 47.9969 66.5384 47.9339C66.4032 47.8694 66.2043 47.8378 65.9445 47.8378V47.8377ZM64.9793 51.5437V47.317H65.9551C66.4549 47.317 66.8434 47.4407 67.1218 47.6879C67.4002 47.9351 67.5407 48.2797 67.5407 48.7242C67.5407 49.1437 67.4095 49.487 67.147 49.7566C66.8858 50.0261 66.5517 50.1603 66.146 50.1603C65.967 50.1603 65.7682 50.1208 65.5507 50.0421V51.544L64.9793 51.5437ZM69.9383 50.1139V49.7561C69.819 49.8836 69.6838 49.9835 69.53 50.0547C69.3775 50.1244 69.225 50.1598 69.0726 50.1598C68.8936 50.1598 68.7292 50.1166 68.578 50.0282C68.4283 49.9402 68.3142 49.8206 68.2373 49.6692C68.1605 49.5194 68.1207 49.2681 68.1207 48.9183V47.3165H68.6775V48.9118C68.6775 49.2063 68.72 49.4115 68.8061 49.5272C68.891 49.6443 69.0408 49.7021 69.2556 49.7021C69.5233 49.7021 69.7514 49.5731 69.9383 49.3154V47.3165H70.4939V50.1137L69.9383 50.1139ZM70.8914 47.7594L71.9414 46.735V47.3175H72.8337V47.8146H71.9414V49.1837C71.9414 49.5031 72.074 49.6637 72.3418 49.6637C72.542 49.6637 72.7528 49.5992 72.9756 49.4691V49.9819C72.7608 50.1016 72.5275 50.1609 72.2755 50.1609C72.0196 50.1609 71.8075 50.0874 71.6392 49.9387C71.5878 49.8955 71.5431 49.845 71.5066 49.7888C71.472 49.7322 71.443 49.6599 71.4204 49.5693C71.3967 49.4798 71.3847 49.3076 71.3847 49.0551V47.8149H70.8915L70.8914 47.7594ZM73.42 47.3175H73.9755V50.1147H73.42V47.3175ZM73.6984 46.1445C73.7899 46.1445 73.8681 46.1743 73.933 46.2377C73.9993 46.3007 74.0311 46.3771 74.0311 46.4692C74.0311 46.5571 73.9992 46.6347 73.933 46.6992C73.868 46.7637 73.7899 46.7965 73.6984 46.7965C73.6122 46.7965 73.5366 46.7629 73.4717 46.6977C73.4054 46.6321 73.3735 46.5556 73.3735 46.4688C73.3735 46.3834 73.4055 46.3085 73.4716 46.2425C73.5366 46.1769 73.6122 46.1441 73.6984 46.1441V46.1445ZM75.3299 47.3171V47.659C75.5791 47.3895 75.8615 47.2553 76.1784 47.2553C76.3534 47.2553 76.5178 47.3 76.6689 47.3906C76.8201 47.4812 76.9341 47.6049 77.0136 47.7626C77.0918 47.9192 77.1316 48.169 77.1316 48.5109V50.114H76.5748V48.5135C76.5748 48.2254 76.5311 48.0204 76.4436 47.8981C76.3561 47.7743 76.2075 47.7128 76.002 47.7128C75.7382 47.7128 75.5142 47.8429 75.3299 48.1021V50.1142H74.7585V47.3169L75.3299 47.3171ZM78.7783 47.7987C78.6271 47.7987 78.4985 47.8501 78.3912 47.9512C78.2851 48.0526 78.2321 48.1748 78.2321 48.3169C78.2321 48.4615 78.2838 48.58 78.3885 48.6747C78.4932 48.7694 78.6245 48.8168 78.7849 48.8168C78.9414 48.8168 79.0726 48.7683 79.1787 48.6721C79.2834 48.5748 79.3365 48.4552 79.3365 48.3105C79.3365 48.1644 79.2834 48.0421 79.1774 47.9448C79.0713 47.8475 78.9374 47.7987 78.7783 47.7987H78.7783ZM78.6444 50.2487C78.4562 50.2487 78.3037 50.2882 78.1844 50.3669C78.065 50.4459 78.0054 50.5469 78.0054 50.6707C78.0054 50.9574 78.2666 51.1007 78.7876 51.1007C79.0342 51.1007 79.2251 51.0634 79.3604 50.993C79.4956 50.9206 79.5632 50.8193 79.5632 50.6877C79.5632 50.5587 79.4783 50.4536 79.3073 50.3708C79.1363 50.2892 78.9149 50.2485 78.6444 50.2485V50.2487ZM77.7309 48.2851C77.7309 47.9865 77.841 47.7512 78.0597 47.5776C78.2798 47.4038 78.5794 47.317 78.9586 47.317H80.12V47.7523H79.5512C79.6613 47.8626 79.7382 47.964 79.7819 48.0561C79.8244 48.1467 79.8455 48.2522 79.8455 48.3692C79.8455 48.5154 79.8031 48.6585 79.7196 48.7992C79.6361 48.9398 79.5287 49.0479 79.3961 49.1228C79.2648 49.1978 79.0487 49.2581 78.7478 49.3029C78.5344 49.3327 78.4283 49.4054 78.4283 49.5187C78.4283 49.5832 78.4667 49.6369 78.5463 49.6779C78.6245 49.72 78.7663 49.7633 78.9732 49.8069C79.3179 49.8833 79.5406 49.9411 79.64 49.9843C79.7395 50.0265 79.8283 50.0868 79.9092 50.1659C80.0445 50.3001 80.1121 50.4682 80.1121 50.6709C80.1121 50.9367 79.9926 51.1482 79.7555 51.3061C79.5181 51.4638 79.2 51.5428 78.8022 51.5428C78.4005 51.5428 78.0797 51.4638 77.8397 51.3046C77.6011 51.1454 77.4804 50.9326 77.4804 50.6641C77.4804 50.2853 77.7151 50.0421 78.1844 49.9316C77.9975 49.812 77.9033 49.6934 77.9033 49.5767C77.9033 49.4873 77.9431 49.4056 78.0253 49.3333C78.1049 49.2599 78.2149 49.2069 78.3515 49.1715C77.9378 48.9888 77.731 48.6941 77.731 48.2851L77.7309 48.2851ZM86.0599 49.1274V49.7954C85.6105 50.0389 85.0921 50.1611 84.5034 50.1611C84.0261 50.1611 83.6204 50.065 83.2877 49.8745C82.9547 49.6836 82.6911 49.4221 82.4975 49.088C82.3025 48.7525 82.207 48.391 82.207 48.0017C82.207 47.3837 82.4284 46.8642 82.8726 46.4421C83.3167 46.0212 83.8642 45.8095 84.5152 45.8095C84.9647 45.8095 85.4631 45.9265 86.0121 46.1592V46.8128C85.5122 46.5276 85.0243 46.3854 84.5457 46.3854C84.0565 46.3854 83.6495 46.5378 83.326 46.8456C83.0024 47.1532 82.8408 47.5387 82.8408 48.0003C82.8408 48.4672 82.9997 48.8512 83.3181 49.151C83.6375 49.4507 84.0445 49.6008 84.5404 49.6008C85.0588 49.6008 85.5653 49.4431 86.0597 49.1273L86.0599 49.1274ZM88.0141 47.8066C87.7477 47.8066 87.5302 47.8935 87.3592 48.0683C87.1882 48.242 87.1033 48.4628 87.1033 48.7324C87.1033 48.9994 87.1908 49.2177 87.366 49.386C87.5396 49.5557 87.7651 49.6399 88.0381 49.6399C88.3114 49.6399 88.534 49.5545 88.7077 49.3834C88.8813 49.2123 88.9673 48.9942 88.9673 48.7259C88.9673 48.4616 88.8772 48.2419 88.6968 48.0683C88.5152 47.8935 88.2884 47.8066 88.014 47.8066L88.0141 47.8066ZM88.044 47.3095C88.471 47.3095 88.8263 47.4463 89.1087 47.7212C89.3909 47.9959 89.5316 48.3406 89.5316 48.7562C89.5316 49.1599 89.3884 49.4939 89.102 49.7609C88.8157 50.0278 88.455 50.1607 88.0189 50.1607C87.5986 50.1607 87.2472 50.0253 86.9649 49.7543C86.6811 49.4848 86.5406 49.1467 86.5406 48.7417C86.5406 48.3314 86.6827 47.9908 86.9688 47.7185C87.2537 47.4464 87.6132 47.3096 88.044 47.3096V47.3095ZM92.4576 48.0842V50.1134H91.8942V48.5497C91.8942 48.2381 91.8517 48.0211 91.7683 47.8975C91.6849 47.7752 91.539 47.7133 91.3308 47.7133C91.2154 47.7133 91.1079 47.7394 91.0113 47.795C90.9144 47.8501 90.8046 47.9463 90.6799 48.0842V50.1135H90.123V47.3176H90.6799V47.6859C90.9636 47.3992 91.242 47.2545 91.5138 47.2545C91.8704 47.2545 92.1475 47.4267 92.3437 47.7687C92.6406 47.4268 92.9509 47.2545 93.2757 47.2545C93.5474 47.2545 93.7716 47.3544 93.9479 47.5531C94.1242 47.7518 94.2117 48.0555 94.2117 48.4631V50.1136H93.6563V48.4513C93.6563 48.2187 93.6085 48.0397 93.5131 47.9147C93.4176 47.791 93.2797 47.7295 93.1007 47.7295C92.8715 47.7295 92.6566 47.848 92.4577 48.0844L92.4576 48.0842ZM95.9392 47.8377H95.5454V49.5525C95.7164 49.642 95.8953 49.6867 96.0823 49.6867C96.3435 49.6867 96.5556 49.5973 96.7227 49.4172C96.8885 49.2372 96.9708 49.0042 96.9708 48.7215C96.9708 48.5389 96.9324 48.3782 96.8528 48.2389C96.7746 48.0995 96.6686 47.9969 96.5333 47.9339C96.398 47.8694 96.1992 47.8378 95.9393 47.8378L95.9392 47.8377ZM94.9742 51.5437V47.317H95.9499C96.4498 47.317 96.8382 47.4407 97.118 47.6879C97.3949 47.9351 97.5343 48.2797 97.5343 48.7242C97.5343 49.1437 97.4042 49.487 97.1418 49.7566C96.8806 50.0261 96.5465 50.1603 96.1409 50.1603C95.962 50.1603 95.763 50.1208 95.5456 50.0421V51.544L94.9742 51.5437ZM99.3962 49.5563V48.7239L99.0237 48.8674C98.8328 48.9424 98.699 49.0173 98.6207 49.0937C98.5425 49.1701 98.5027 49.2648 98.5027 49.3793C98.5027 49.4948 98.5403 49.5895 98.6154 49.6633C98.6898 49.7356 98.7853 49.7725 98.9044 49.7725C99.0807 49.7725 99.2453 49.7002 99.3963 49.5567L99.3962 49.5563ZM99.9439 48.4257V49.6145C99.9439 49.7092 99.9777 49.7566 100.043 49.7566C100.111 49.7566 100.216 49.7081 100.36 49.6093V49.9485C100.233 50.0276 100.132 50.0813 100.057 50.1103C99.9796 50.1402 99.9003 50.1536 99.8165 50.1536C99.5793 50.1536 99.4386 50.0615 99.3962 49.8788C99.1576 50.0615 98.9056 50.1536 98.6365 50.1536C98.4388 50.1536 98.2757 50.0891 98.1447 49.9601C98.012 49.8311 97.947 49.6693 97.947 49.4748C97.947 49.2985 98.0105 49.1408 98.1379 49.0014C98.2664 48.8635 98.4468 48.7528 98.6828 48.6715L99.3961 48.4281V48.2782C99.3961 47.9375 99.2263 47.7679 98.8883 47.7679C98.5847 47.7679 98.289 47.923 98.0014 48.2335V47.6325C98.2175 47.3813 98.529 47.2551 98.9347 47.2551C99.2383 47.2551 99.4823 47.3341 99.6666 47.4918C99.7274 47.5432 99.7819 47.61 99.8308 47.6942C99.8796 47.7785 99.9105 47.8627 99.9236 47.9466C99.9387 48.0308 99.9424 48.19 99.9424 48.4253L99.9439 48.4257ZM101.395 47.3171V47.659C101.644 47.3895 101.926 47.2553 102.243 47.2553C102.418 47.2553 102.582 47.3 102.734 47.3906C102.885 47.4812 102.999 47.6049 103.078 47.7626C103.156 47.9192 103.196 48.169 103.196 48.5109V50.114H102.639V48.5135C102.639 48.2254 102.596 48.0204 102.508 47.8981C102.421 47.7743 102.272 47.7128 102.067 47.7128C101.803 47.7128 101.579 47.8429 101.395 48.1021V50.1142H100.823V47.3169L101.395 47.3171ZM105.574 47.3171H106.196L104.21 51.5439H103.588L104.538 49.5239L103.455 47.3171H104.09L104.843 48.8913L105.574 47.3171ZM108.369 48.9797H108.126V47.395H108.517L108.92 48.6614L109.31 47.395H109.693V48.9797H109.449V47.6501L109.041 48.9797H108.801L108.369 47.6277L108.369 48.9797ZM107.422 48.9797H107.156V47.6199H106.638V47.3951H107.946V47.6199H107.422L107.422 48.9797Z" fill="#1D2329"/>
</svg>
