<svg width="130" height="16" viewBox="0 0 130 16" fill="none" xmlns="http://www.w3.org/2000/svg">
<path d="M1.91793 5.05462H0.781315C0.390605 5.05462 0.17749 4.90917 0.17749 4.50917C0.17749 4.14553 0.390605 3.96371 0.781315 3.96371H1.91793V2.94554C1.91793 1.16372 2.80591 0.254622 4.54634 0.254622C5.22121 0.254622 5.82503 0.400078 6.3223 0.654623C6.92612 1.05462 7.21028 1.60008 7.21028 2.25462C7.21028 2.72735 7.0682 2.90917 6.71301 2.90917C6.46438 2.90917 6.25126 2.76371 6.18022 2.50917C6.03815 2.03644 5.89607 1.74553 5.78951 1.63644C5.5764 1.3819 5.15017 1.23644 4.54634 1.23644C3.44525 1.23644 2.9835 1.7819 2.9835 2.83644V3.85462H5.04361C5.50536 3.85462 5.71847 4.00008 5.71847 4.40008C5.71847 4.76371 5.46984 4.94553 5.04361 4.94553H2.9835V11.6728C2.9835 12.0728 2.84142 12.291 2.48623 12.291C2.13104 12.291 1.98897 12.0728 1.98897 11.6728L1.91793 5.05462ZM11.1174 11.2001V5.09099H9.59006C9.16383 5.09099 8.95072 4.94553 8.95072 4.54553C8.95072 4.1819 9.16383 4.00008 9.59006 4.00008H11.6146C11.9698 4.00008 12.1474 4.29099 12.1474 4.90917C12.7868 4.21826 13.4261 3.85462 14.172 3.85462C14.7759 3.85462 15.2021 4.00008 15.5573 4.40008C15.9125 4.80008 16.0545 5.27281 16.0545 5.85462C16.0545 6.25462 15.9125 6.47281 15.5573 6.47281C15.3442 6.47281 15.2021 6.32735 15.0955 6.07281C14.9534 5.56371 14.8469 5.30917 14.8469 5.27281C14.7048 5.01826 14.3851 4.87281 14.0655 4.87281C13.6748 4.87281 13.284 5.01826 12.9644 5.34553C12.7513 5.49099 12.4671 5.81826 12.1119 6.29099V11.2001H14.0299C14.4917 11.2001 14.6693 11.3455 14.6693 11.7092C14.6693 12.0728 14.4562 12.2546 14.0299 12.2546H9.59006C9.12831 12.2546 8.95072 12.1092 8.95072 11.7092C8.95072 11.3455 9.16383 11.1637 9.59006 11.1637H11.1529L11.1174 11.2001ZM18.825 8.29099V9.45462C18.825 10.7274 19.6775 11.3092 21.3824 11.3092C22.0218 11.3092 22.519 11.2728 22.9097 11.091C23.1228 11.0546 23.4425 10.8364 23.9398 10.4728C24.2239 10.1819 24.4726 10.0364 24.5791 10.0364C24.8633 10.0364 25.0409 10.1819 25.0409 10.4728C25.0409 10.7637 24.8278 11.1274 24.4015 11.491C23.7267 12.0364 22.6611 12.3637 21.3469 12.3637C18.9671 12.3637 17.795 11.4183 17.795 9.41826V6.54553C17.795 5.89099 18.0436 5.27281 18.5409 4.83644C19.1802 4.1819 20.1748 3.89099 21.4534 3.89099C23.7622 3.89099 24.8988 5.09099 24.8988 7.49099C24.8988 8.10917 24.6502 8.36371 24.2595 8.36371L18.825 8.29099ZM18.825 7.23644H23.9043C23.9043 5.6728 23.0518 4.87281 21.3469 4.87281C20.7075 4.87281 20.1748 5.01826 19.6065 5.34553C19.1092 5.74553 18.825 6.14553 18.825 6.65462V7.23644ZM27.7403 8.29099V9.45462C27.7403 10.7274 28.5928 11.3092 30.2977 11.3092C30.9371 11.3092 31.4343 11.2728 31.825 11.091C32.0381 11.0546 32.3578 10.8364 32.8551 10.4728C33.1392 10.1819 33.3879 10.0364 33.4944 10.0364C33.7786 10.0364 33.9562 10.1819 33.9562 10.4728C33.9562 10.7637 33.7431 11.1274 33.3168 11.491C32.642 12.0364 31.5764 12.3637 30.2622 12.3637C27.8824 12.3637 26.7103 11.4183 26.7103 9.41826V6.54553C26.7103 5.89099 26.9589 5.27281 27.4562 4.83644C28.0955 4.1819 29.0901 3.89099 30.3687 3.89099C32.6775 3.89099 33.8141 5.09099 33.8141 7.49099C33.8141 8.10917 33.5655 8.36371 33.1748 8.36371L27.7403 8.29099ZM27.7403 7.23644H32.8196C32.8196 5.6728 31.9671 4.87281 30.2622 4.87281C29.6228 4.87281 29.0901 5.01826 28.5218 5.34553C27.989 5.74553 27.7403 6.14553 27.7403 6.65462V7.23644ZM35.6966 9.01826V4.47281C35.6966 2.03644 36.9398 0.872801 39.3906 0.872801C40.3851 0.872801 41.1666 1.12735 41.8059 1.52735C42.4808 2.07281 42.836 2.83644 42.836 3.81826C42.836 4.29099 42.6939 4.47281 42.3032 4.47281C42.0545 4.47281 41.8414 4.25462 41.7704 3.81826C41.7349 3.45462 41.5573 3.12735 41.3797 2.80008C41.0955 2.1819 40.3851 1.92735 39.3196 1.92735C38.4316 1.92735 37.7567 2.1819 37.3305 2.61826C36.9043 3.05462 36.7977 3.74553 36.7977 4.69099V8.47281C36.7977 9.49099 37.0108 10.1819 37.4015 10.5819C37.8633 11.0546 38.5026 11.3455 39.3906 11.3455C40.7759 11.3455 41.5573 10.8364 41.7704 9.89099C41.8769 9.49099 41.8769 9.34553 41.8769 9.27281C41.9835 9.05462 42.1256 8.9819 42.3387 8.9819C42.6939 8.9819 42.8715 9.23644 42.8715 9.63644C42.8715 10.5455 42.4808 11.2364 41.7704 11.8183C41.1666 12.2183 40.4207 12.4364 39.4616 12.4364C38.325 12.4364 37.4371 12.1819 36.7977 11.6364C36.0518 11.0183 35.6966 10.1092 35.6966 9.01826ZM44.4698 9.67281V6.65462C44.4698 4.80008 45.642 3.89099 48.0218 3.89099C50.4015 3.89099 51.5737 4.80008 51.5737 6.65462V9.67281C51.5737 11.5274 50.4015 12.4364 48.0573 12.4364C45.6775 12.4001 44.4698 11.491 44.4698 9.67281ZM50.5436 9.67281V6.65462C50.5436 5.49099 49.6912 4.94553 47.9862 4.94553C46.3524 4.94553 45.4644 5.56371 45.4644 6.65462V9.67281C45.4644 10.8364 46.3168 11.3819 48.0218 11.3819C49.7622 11.3455 50.5436 10.7637 50.5436 9.67281ZM59.3879 11.3819C58.8906 11.7819 58.4999 12.0001 58.1092 12.1455C57.7185 12.291 57.2212 12.4001 56.6884 12.4001C55.7649 12.4001 54.948 12.1819 54.3797 11.7819C53.7048 11.3092 53.3496 10.6183 53.3496 9.67281V6.54553C53.3496 5.63644 53.7048 4.94553 54.3442 4.47281C54.8769 4.07281 55.6939 3.85462 56.5819 3.85462C57.1857 3.85462 57.683 3.89099 58.0737 4.0728C58.4644 4.21826 58.9261 4.47281 59.3524 4.87281V1.09099C59.3524 0.581896 59.4944 0.327348 59.8496 0.327348C60.2048 0.327348 60.3824 0.581896 60.3824 1.09099V11.8546C60.3824 12.2546 60.2403 12.4001 59.8851 12.4001C59.672 12.4001 59.5299 12.291 59.4944 12.0364C59.4234 11.891 59.3879 11.6728 59.3879 11.3819ZM59.3168 10.1819V5.92735C58.8196 5.52735 58.4289 5.27281 58.0737 5.16371C57.6119 5.01826 57.1857 4.90917 56.6884 4.90917C56.0491 4.90917 55.5163 5.01826 55.1256 5.30917C54.6283 5.60008 54.3442 6.10917 54.3442 6.69099V9.63644C54.3442 10.2546 54.5928 10.691 55.1256 11.0546C55.5873 11.3092 56.0491 11.4546 56.7595 11.4546C57.2922 11.4546 57.7895 11.3455 58.1802 11.2001C58.5354 10.8728 58.9261 10.5819 59.3168 10.1819ZM63.2595 8.29099V9.45462C63.2595 10.7274 64.1119 11.3092 65.8168 11.3092C66.4562 11.3092 66.9535 11.2728 67.3442 11.091C67.5573 11.0546 67.8769 10.8364 68.3742 10.4728C68.6584 10.1819 68.907 10.0364 69.0136 10.0364C69.2977 10.0364 69.4753 10.1819 69.4753 10.4728C69.4753 10.7637 69.2622 11.1274 68.836 11.491C68.1611 12.0364 67.0955 12.3637 65.7813 12.3637C63.4015 12.3637 62.2294 11.4183 62.2294 9.41826V6.54553C62.2294 5.89099 62.478 5.27281 62.9753 4.83644C63.6147 4.1819 64.6092 3.89099 65.8879 3.89099C68.1966 3.89099 69.3332 5.09099 69.3332 7.49099C69.3332 8.10917 69.0846 8.36371 68.6939 8.36371L63.2595 8.29099ZM63.2595 7.23644H68.3387C68.3387 5.6728 67.4862 4.87281 65.7813 4.87281C65.142 4.87281 64.6092 5.01826 64.0409 5.34553C63.5081 5.74553 63.2595 6.14553 63.2595 6.65462V7.23644ZM71.2157 9.01826V4.47281C71.2157 2.03644 72.4589 0.872801 74.9097 0.872801C75.9043 0.872801 76.6857 1.12735 77.325 1.52735C77.9999 2.07281 78.3551 2.83644 78.3551 3.81826C78.3551 4.29099 78.213 4.47281 77.8223 4.47281C77.5737 4.47281 77.3605 4.25462 77.2895 3.81826C77.254 3.45462 77.0764 3.12735 76.8988 2.80008C76.6146 2.1819 75.9043 1.92735 74.8387 1.92735C73.9507 1.92735 73.2759 2.1819 72.8496 2.61826C72.4589 3.09099 72.3168 3.74553 72.3168 4.69099V8.47281C72.3168 9.49099 72.53 10.1819 72.9207 10.5819C73.3469 11.0546 74.0218 11.3455 74.9097 11.3455C76.295 11.3455 77.0764 10.8364 77.2895 9.89099C77.3961 9.49099 77.3961 9.34553 77.3961 9.27281C77.5026 9.05462 77.6447 8.9819 77.8223 8.9819C78.1775 8.9819 78.3551 9.23644 78.3551 9.63644C78.3551 10.5455 77.9644 11.2364 77.254 11.8183C76.6502 12.2183 75.9043 12.4364 74.9453 12.4364C73.8086 12.4364 72.9207 12.1819 72.2813 11.6364C71.5709 11.0183 71.2157 10.1092 71.2157 9.01826ZM85.7076 11.3819C85.2103 11.7819 84.8196 12.0364 84.5354 12.1455C84.1447 12.291 83.683 12.4001 83.1502 12.4001C82.2977 12.4001 81.5873 12.2546 81.019 11.8546C80.3797 11.3819 80.0955 10.8001 80.0955 9.92735C80.0955 9.05462 80.4507 8.40008 81.0901 7.89099C81.6228 7.45462 82.3687 7.23644 83.2567 7.23644C83.9316 7.23644 84.7485 7.3819 85.672 7.74553V6.43644C85.672 5.81826 85.3879 5.3819 84.8196 5.12735C84.4289 4.9819 83.9316 4.87281 83.3988 4.87281C82.0491 4.87281 81.3742 5.27281 81.2321 6.03644C81.1966 6.40008 81.1256 6.5819 81.1256 6.5819C81.019 6.72735 80.8769 6.83644 80.6638 6.83644C80.2731 6.83644 80.131 6.61826 80.131 6.21826C80.131 5.67281 80.3442 5.16371 80.7704 4.69099C81.2677 4.0728 82.1912 3.81826 83.5409 3.81826C84.5709 3.81826 85.3524 3.96371 85.8496 4.36371C86.4534 4.83644 86.7376 5.52735 86.7376 6.5819V10.3274C86.7376 10.7637 86.8442 11.091 86.9862 11.2001C86.9862 11.2001 87.1993 11.3092 87.4835 11.4546C87.6256 11.5637 87.7321 11.7092 87.7321 11.9637C87.7321 12.2546 87.5901 12.4364 87.2704 12.4364C87.1638 12.4364 87.0218 12.4364 86.8086 12.3274C86.4179 12.1819 86.1693 12.0728 86.1338 12.0728C85.8851 11.891 85.7786 11.6728 85.7076 11.3819ZM85.672 10.291V8.72735C84.8906 8.47281 84.1092 8.32735 83.4343 8.32735C81.907 8.32735 81.1611 8.83644 81.1611 9.85462C81.1611 10.4001 81.4097 10.8001 81.836 11.0183C82.2267 11.2364 82.6884 11.3092 83.2212 11.3092C83.7185 11.3092 84.1447 11.2001 84.5354 11.0183C84.8196 10.9455 85.1748 10.691 85.672 10.291ZM89.6502 4.72735C89.8988 4.43644 90.1474 4.1819 90.2895 4.0728C90.5381 3.92735 90.7868 3.81826 91.1775 3.81826C91.7103 3.81826 92.2075 4.10917 92.6693 4.72735C92.9534 4.36371 93.2021 4.10917 93.4507 4.03644C93.6993 3.89099 94.0545 3.81826 94.4453 3.81826C95.6884 3.81826 96.2567 4.43644 96.2567 5.67281V11.6364C96.2567 12.1455 96.1146 12.4001 95.7239 12.4001C95.3688 12.4001 95.2267 12.1455 95.2267 11.6364V6.03644C95.2267 5.27281 94.9425 4.87281 94.3387 4.87281C93.8769 4.87281 93.4507 5.16371 93.06 5.74553V11.6364C93.06 12.1455 92.9179 12.4001 92.5627 12.4001C92.2076 12.4001 92.0655 12.1455 92.0655 11.6364V6.1819C92.0655 5.30917 91.7103 4.90917 91.0709 4.90917C90.6092 4.90917 90.2185 5.20008 89.8278 5.7819V11.7092C89.8278 12.2183 89.6857 12.4728 89.295 12.4728C88.9398 12.4728 88.7977 12.2183 88.7977 11.7092V4.43644C88.7977 4.0728 88.9398 3.89099 89.2595 3.89099C89.4015 3.89099 89.5436 4.00008 89.6502 4.1819C89.6146 4.32735 89.6502 4.5819 89.6502 4.72735ZM98.8851 4.72735C99.6666 4.10917 100.626 3.85462 101.656 3.85462C103.822 3.85462 104.852 4.80008 104.852 6.61826V9.63644C104.852 10.5092 104.568 11.2001 103.964 11.7092C103.432 12.1819 102.686 12.3637 101.727 12.3637C100.626 12.3637 99.7021 12.0728 98.8496 11.4546V14.9455C98.8496 15.491 98.7075 15.7455 98.3524 15.7455C97.9972 15.7455 97.8551 15.491 97.8551 14.9455V4.65462C97.8551 4.10917 97.9972 3.85462 98.2813 3.85462C98.4234 3.85462 98.5655 3.96371 98.672 4.14553C98.7431 4.36371 98.7786 4.5819 98.8851 4.72735ZM98.8851 10.3274C99.631 10.9819 100.519 11.3455 101.549 11.3455C102.188 11.3455 102.721 11.2364 103.112 10.9455C103.609 10.6546 103.787 10.1819 103.787 9.63644V6.61826C103.787 5.96371 103.538 5.56371 103.005 5.23644C102.615 5.01826 102.082 4.94553 101.443 4.94553C100.839 4.94553 100.341 5.05462 100.022 5.20008C99.6666 5.34553 99.3469 5.6728 98.8496 6.14553V10.3274H98.8851ZM108.369 7.3819C108.369 5.05462 109.15 2.98189 110.677 1.23644C111.21 0.581892 111.708 0.218262 112.027 0.218262C112.134 0.218262 112.276 0.218257 112.311 0.327348C112.418 0.436438 112.453 0.472805 112.453 0.61826C112.453 0.763714 112.24 1.05463 111.85 1.49099C110.216 3.09099 109.434 5.09099 109.434 7.45462C109.434 10.0728 110.287 12.2546 111.956 13.8546C112.311 14.1455 112.453 14.4728 112.453 14.6546C112.453 14.7637 112.418 14.9092 112.311 14.9455C112.205 15.0546 112.098 15.091 112.027 15.091C111.637 15.091 111.104 14.6183 110.393 13.6728C109.008 12.0001 108.369 9.92735 108.369 7.3819ZM129.822 8.00008C129.822 10.3274 129.041 12.4001 127.514 14.1455C126.981 14.8001 126.484 15.1637 126.164 15.1637C126.057 15.1637 125.915 15.1637 125.88 15.0546C125.773 14.9455 125.738 14.8364 125.738 14.7637C125.738 14.6183 125.951 14.291 126.341 13.9637C127.975 12.3637 128.757 10.3637 128.757 8.00008C128.757 5.3819 127.904 3.20007 126.235 1.60007C125.88 1.30917 125.738 0.981896 125.738 0.800078C125.738 0.690987 125.773 0.545529 125.88 0.509165C125.986 0.400074 126.093 0.363714 126.164 0.363714C126.555 0.363714 127.087 0.836438 127.798 1.78189C129.147 3.41826 129.822 5.52735 129.822 8.00008ZM123.962 14.6546H114.158C113.874 14.6546 113.555 14.4001 113.555 14.0364C113.555 13.6728 113.803 13.4183 114.158 13.4183H123.962C124.246 13.4183 124.565 13.6728 124.565 14.0364C124.53 14.4001 124.352 14.6546 123.962 14.6546ZM117 1.49099C117 1.49099 117.852 2.10917 117.852 3.09099C117.852 4.90917 115.437 6.94553 115.437 8.83644C115.437 10.9092 116.964 12.2183 118.385 12.6183C118.598 12.6546 118.669 12.4001 118.421 12.3637C117.817 12.2183 117.142 11.4183 117.142 10.1455C117.142 8.9819 118.243 8.54553 118.669 7.96371C119.131 7.34553 119.024 6.65462 118.776 6.43644C118.527 6.21826 118.669 5.92735 119.167 6.29099C119.628 6.65462 120.055 7.23644 119.912 7.85462C119.699 8.61826 119.948 9.05462 120.374 9.12735C120.765 9.16371 121.227 8.9819 121.156 8.61826C121.12 8.25462 120.907 7.85462 121.014 7.85462C121.298 7.85462 121.902 8.54553 121.902 9.67281C121.902 10.8001 121.014 11.6001 120.729 11.891C120.587 12.0364 120.765 12.291 121.014 12.1819C121.12 12.1455 121.369 11.9637 121.511 11.891C122.186 11.3819 123.322 10.3274 123.322 8.36371C123.322 6.29099 122.576 5.3819 121.795 4.61826C121.049 3.85462 120.871 4.07281 121.049 4.40008C121.688 5.56371 121.298 5.92735 120.836 5.92735C120.303 5.92735 120.232 4.61826 120.055 3.63644C119.557 1.41826 117.639 1.05462 117.284 1.05462C116.893 1.09098 116.538 1.27281 117 1.49099Z" fill="#006400"/>
</svg>
