<svg width="77" height="24" viewBox="0 0 77 24" fill="none" xmlns="http://www.w3.org/2000/svg">
<path d="M25.6311 13.3611L24.2769 9.18495C24.2775 9.18683 24.2777 9.18878 24.2783 9.19066C24.2776 9.18848 24.2773 9.1863 24.2767 9.18412L24.2766 9.18375V9.1836L21.5881 0.896147C21.4411 0.459542 21.0363 0.166519 20.5724 0.1702C20.1072 0.172605 19.7136 0.459917 19.5697 0.902533L17.0177 8.76893H8.96561L6.40894 0.902082C6.26517 0.459917 5.87158 0.172605 5.40634 0.1702H5.40071C4.9426 0.1702 4.53716 0.46142 4.3885 0.902909L1.70742 9.18292L1.70704 9.18397V9.1842C1.70637 9.1863 1.70607 9.18841 1.70539 9.19051C1.70599 9.18863 1.70622 9.18668 1.70682 9.1848L0.347553 13.3613C0.247519 13.6674 0.247096 13.9975 0.346344 14.3039C0.445593 14.6104 0.639392 14.8773 0.899843 15.0665L12.6363 23.6046C12.638 23.6059 12.64 23.6067 12.6417 23.6079C12.6468 23.6115 12.6516 23.6152 12.6567 23.6186C12.6519 23.6154 12.6474 23.6118 12.6427 23.6085L12.6426 23.6085C12.6434 23.6091 12.6443 23.6094 12.6451 23.61L12.6471 23.6112L12.6474 23.6114C12.6656 23.624 12.6844 23.6356 12.7039 23.6462C12.7066 23.6477 12.709 23.6496 12.7117 23.651L12.7119 23.6511C12.7135 23.6519 12.715 23.6529 12.7167 23.6538C12.718 23.6544 12.7193 23.6547 12.7205 23.6553C12.7214 23.6558 12.7224 23.6561 12.7233 23.6565C12.7255 23.6575 12.7279 23.6582 12.73 23.6593C12.7402 23.6642 12.751 23.6682 12.7615 23.6725C12.7713 23.6765 12.7808 23.6813 12.7909 23.6848L12.7922 23.6853C12.7938 23.6859 12.7953 23.6867 12.7971 23.6873C12.7992 23.6881 12.8012 23.6889 12.8033 23.6896L12.8058 23.6902C12.8084 23.691 12.8112 23.6914 12.8139 23.6922L12.817 23.6929C12.8311 23.6972 12.8458 23.7003 12.8603 23.7035C12.866 23.7048 12.8715 23.7066 12.8773 23.7076L12.8797 23.7082C12.8816 23.7086 12.8834 23.7093 12.8853 23.7096C12.8884 23.7101 12.8914 23.7111 12.8945 23.7115C12.897 23.7119 12.8996 23.7118 12.902 23.7121L12.9033 23.7122H12.9037C12.9314 23.7162 12.9594 23.719 12.988 23.719H12.989C13.0177 23.719 13.0457 23.7162 13.0735 23.7122H13.0738L13.0752 23.7121C13.0776 23.7118 13.0803 23.7119 13.0827 23.7115C13.0859 23.711 13.0889 23.7101 13.092 23.7096C13.0939 23.7093 13.0956 23.7086 13.0975 23.7082L13.0999 23.7076C13.1058 23.7065 13.1114 23.7047 13.1172 23.7034C13.1316 23.7003 13.146 23.6972 13.16 23.693L13.1629 23.6923C13.1657 23.6915 13.1686 23.6911 13.1714 23.6903C13.1722 23.69 13.1731 23.6899 13.1739 23.6897C13.1761 23.689 13.1782 23.6881 13.1803 23.6873C13.1819 23.6867 13.1834 23.6859 13.1851 23.6853L13.1864 23.6848C13.197 23.681 13.2071 23.6761 13.2175 23.6718C13.2272 23.6677 13.2371 23.6641 13.2465 23.6596C13.2489 23.6585 13.2513 23.6578 13.2536 23.6567L13.2564 23.6555C13.2577 23.6549 13.2591 23.6545 13.2603 23.6538C13.2621 23.6529 13.2637 23.6519 13.2654 23.6511L13.2655 23.651C13.2682 23.6496 13.2707 23.6475 13.2735 23.646C13.2928 23.6355 13.3116 23.624 13.3297 23.6115C13.3311 23.6105 13.3328 23.6097 13.3343 23.6087L13.3355 23.6079C13.3372 23.6067 13.3392 23.6058 13.3409 23.6045L25.0791 15.0662C25.3394 14.877 25.5332 14.61 25.6324 14.3037C25.7316 13.9973 25.7312 13.6673 25.6311 13.3611ZM20.5798 1.67258L22.8818 8.76893H18.2778L20.5798 1.67258ZM22.4787 9.9689L21.5394 11.174L14.6111 20.0623L17.8884 9.96882H22.4787V9.9689ZM12.4187 23.3046C12.4187 23.3045 12.4187 23.3045 12.4187 23.3046C12.4193 23.3064 12.4203 23.3081 12.4209 23.3099C12.4203 23.3081 12.4193 23.3064 12.4187 23.3046ZM11.3676 20.0629L3.50439 9.9689H8.09501L11.3676 20.0629ZM5.39906 1.67251L7.70532 8.76893H3.1012L5.39906 1.67251ZM1.60446 14.0957C1.54904 14.0553 1.50783 13.9984 1.48675 13.9331C1.46568 13.8678 1.46583 13.7975 1.48718 13.7323L2.49758 10.6276L9.90121 20.1315L1.60446 14.0957ZM12.6157 23.5888C12.6134 23.5869 12.6111 23.5849 12.6089 23.5829L12.6074 23.5816C12.6029 23.5779 12.5985 23.574 12.5941 23.5701C12.5856 23.5627 12.5772 23.5551 12.5692 23.5471L12.5713 23.5489L12.574 23.5512C12.5912 23.5677 12.6093 23.5831 12.6282 23.5974L12.6288 23.5979C12.6297 23.5986 12.6305 23.5994 12.6314 23.6002C12.6261 23.5964 12.6207 23.5928 12.6157 23.5888ZM12.9889 21.1773L11.0632 15.2377L9.35492 9.9689H16.6282L12.9889 21.1773ZM13.383 23.5701C13.3785 23.574 13.3742 23.5779 13.3696 23.5816L13.368 23.5831C13.3657 23.5849 13.3635 23.587 13.3613 23.5888C13.3563 23.5928 13.3509 23.5964 13.3457 23.6003C13.3466 23.5996 13.3474 23.5987 13.3484 23.5981L13.3488 23.5976C13.3677 23.5834 13.3857 23.568 13.4028 23.5516C13.4034 23.5509 13.4043 23.5504 13.405 23.5498C13.4059 23.5489 13.4068 23.5483 13.4077 23.5474C13.3997 23.5552 13.3915 23.5628 13.383 23.5701ZM24.3744 14.0956L16.0789 20.1297L23.4849 10.6284L24.4913 13.7317C24.5127 13.7969 24.513 13.8673 24.492 13.9327C24.471 13.998 24.4298 14.0551 24.3744 14.0956Z" fill="#231F20"/>
<path d="M54.0106 5.89087H52.3748L52.3823 18.1002H59.0082V16.59H54.0181L54.0106 5.89087Z" fill="#231F20"/>
<path d="M65.3135 15.9576C64.9008 16.3859 64.218 16.8141 63.2875 16.8141C62.0418 16.8141 61.539 16.198 61.539 15.3941C61.539 14.1844 62.3795 13.6059 64.1654 13.6059C64.5031 13.6059 65.0434 13.6435 65.3211 13.6961V15.9576H65.3135ZM63.6176 8.55688C62.2969 8.55688 61.0813 9.02272 60.1358 9.81163L60.7136 10.8184C61.3815 10.4277 62.1994 10.037 63.3775 10.037C64.7207 10.037 65.3135 10.7283 65.3135 11.8853V12.4789C65.0509 12.4263 64.5106 12.3887 64.1804 12.3887C61.3139 12.3887 59.8582 13.3955 59.8582 15.4993C59.8582 17.3851 61.0138 18.3318 62.7622 18.3318C63.9403 18.3318 65.0734 17.7909 65.4636 16.9118L65.7638 18.1064H66.9194V11.8553C66.9119 9.87925 66.0564 8.55688 63.6176 8.55688Z" fill="#231F20"/>
<path d="M72.1979 16.8702C71.5826 16.8702 71.0423 16.795 70.6371 16.6072V10.9646C71.1924 10.4988 71.8828 10.1607 72.7607 10.1607C74.3441 10.1607 74.9519 11.2802 74.9519 13.0909C74.9519 15.6605 73.9689 16.8702 72.1979 16.8702ZM72.8883 8.56033C71.425 8.56033 70.6371 9.55961 70.6371 9.55961V7.9818L70.6296 5.89307H69.0312L69.0388 17.8018C69.8417 18.1399 70.9373 18.3203 72.1304 18.3203C75.1845 18.3203 76.6553 16.3668 76.6553 12.9932C76.6478 10.326 75.2896 8.56033 72.8883 8.56033Z" fill="#231F20"/>
<path d="M36.1996 7.21549C37.6478 7.21549 38.5858 7.69635 39.1936 8.18472L39.899 6.96003C38.946 6.11853 37.6553 5.66772 36.2746 5.66772C32.7928 5.66772 30.354 7.79402 30.354 12.0842C30.354 16.5772 32.9879 18.3278 35.997 18.3278C37.5053 18.3278 38.7884 17.9747 39.6289 17.6216L39.5913 12.8205V11.3103H35.1265V12.8205H37.978L38.0155 16.4645C37.6403 16.6524 36.995 16.8026 36.117 16.8026C33.7008 16.8026 32.0799 15.2774 32.0799 12.0692C32.0724 8.80082 33.7458 7.21549 36.1996 7.21549Z" fill="#231F20"/>
<path d="M47.7202 5.88916H46.1218L46.1293 7.94033V15.0255C46.1293 17.0015 46.9848 18.3239 49.4236 18.3239C49.7613 18.3239 50.0914 18.2938 50.4066 18.2337V16.7987C50.174 16.8362 49.9263 16.8512 49.6637 16.8512C48.3205 16.8512 47.7277 16.16 47.7277 15.0029V10.1192H50.4066V8.78183H47.7277L47.7202 5.88916Z" fill="#231F20"/>
<path d="M42.0569 18.1003H43.6552V8.78369H42.0569V18.1003Z" fill="#231F20"/>
<path d="M42.0569 7.49879H43.6552V5.89844H42.0569V7.49879Z" fill="#231F20"/>
</svg>
