<svg width="86" height="29" viewBox="0 0 86 29" fill="none" xmlns="http://www.w3.org/2000/svg">
<g clip-path="url(#clip0_518_2825)">
<path d="M36.5974 14.8719C36.5974 18.8972 33.4388 21.8634 29.5625 21.8634C25.6862 21.8634 22.5276 18.8972 22.5276 14.8719C22.5276 10.8182 25.6862 7.88037 29.5625 7.88037C33.4388 7.88037 36.5974 10.8182 36.5974 14.8719ZM33.5179 14.8719C33.5179 12.3565 31.6872 10.6354 29.5625 10.6354C27.4378 10.6354 25.6071 12.3565 25.6071 14.8719C25.6071 17.3621 27.4378 19.1084 29.5625 19.1084C31.6872 19.1084 33.5179 17.359 33.5179 14.8719Z" fill="#EA4335"/>
<path d="M51.774 14.8719C51.774 18.8972 48.6153 21.8634 44.739 21.8634C40.8627 21.8634 37.7041 18.8972 37.7041 14.8719C37.7041 10.8213 40.8627 7.88037 44.739 7.88037C48.6153 7.88037 51.774 10.8182 51.774 14.8719ZM48.6944 14.8719C48.6944 12.3565 46.8637 10.6354 44.739 10.6354C42.6143 10.6354 40.7837 12.3565 40.7837 14.8719C40.7837 17.3621 42.6143 19.1084 44.739 19.1084C46.8637 19.1084 48.6944 17.359 48.6944 14.8719Z" fill="#FBBC05"/>
<path d="M66.3181 8.30276V20.8547C66.3181 26.018 63.2638 28.1268 59.6531 28.1268C56.2542 28.1268 54.2085 25.8604 53.4371 24.0069L56.1182 22.8942C56.5957 24.0321 57.7655 25.3749 59.6499 25.3749C61.9612 25.3749 63.3935 23.9533 63.3935 21.2771V20.2716H63.286C62.5967 21.1195 61.2688 21.8603 59.593 21.8603C56.0866 21.8603 52.8743 18.8153 52.8743 14.8971C52.8743 10.9506 56.0866 7.88037 59.593 7.88037C61.2656 7.88037 62.5935 8.62113 63.286 9.44385H63.3935V8.30591H66.3181V8.30276ZM63.6116 14.8971C63.6116 12.4353 61.9644 10.6354 59.8681 10.6354C57.7434 10.6354 55.9633 12.4353 55.9633 14.8971C55.9633 17.3337 57.7434 19.1084 59.8681 19.1084C61.9644 19.1084 63.6116 17.3337 63.6116 14.8971Z" fill="#4285F4"/>
<path d="M71.1397 0.945557V21.4347H68.136V0.945557H71.1397Z" fill="#34A853"/>
<path d="M82.8445 17.173L85.2348 18.7617C84.4634 19.8996 82.6043 21.8602 79.3919 21.8602C75.4081 21.8602 72.4329 18.79 72.4329 14.8687C72.4329 10.711 75.4334 7.8772 79.0473 7.8772C82.6865 7.8772 84.4665 10.7646 85.0483 12.3249L85.3676 13.1193L75.993 16.9901C76.7107 18.3929 77.8268 19.1084 79.3919 19.1084C80.9601 19.1084 82.0478 18.3393 82.8445 17.173ZM75.4871 14.6575L81.7537 12.0633C81.4091 11.1901 80.372 10.5818 79.1516 10.5818C77.5865 10.5818 75.4081 11.9593 75.4871 14.6575Z" fill="#EA4335"/>
<path d="M11.1578 13.0532V10.087H21.1838C21.2818 10.604 21.3324 11.2155 21.3324 11.8774C21.3324 14.1029 20.7222 16.8547 18.7555 18.8154C16.8427 20.8012 14.3986 21.8604 11.161 21.8604C5.15995 21.8604 0.11377 16.9871 0.11377 11.0043C0.11377 5.02145 5.15995 0.148193 11.161 0.148193C14.4808 0.148193 16.8458 1.44689 18.6227 3.13961L16.5233 5.23265C15.2491 4.04113 13.5228 3.11439 11.1578 3.11439C6.77561 3.11439 3.34826 6.63537 3.34826 11.0043C3.34826 15.3732 6.77561 18.8942 11.1578 18.8942C14.0002 18.8942 15.6191 17.7562 16.6561 16.7223C17.4972 15.8838 18.0505 14.686 18.2686 13.05L11.1578 13.0532Z" fill="#4285F4"/>
</g>
<defs>
<clipPath id="clip0_518_2825">
<rect width="86" height="29" fill="white"/>
</clipPath>
</defs>
</svg>
