<svg width="76" height="50" viewBox="0 0 76 50" fill="none" xmlns="http://www.w3.org/2000/svg">
<g clip-path="url(#clip0_518_2870)">
<path d="M22.4957 21.2465V33.3671H18.615V18.132L26.6268 18.1399C30.0297 18.1399 31.1889 20.5258 31.1889 22.693V33.3671H27.3152V22.7129C27.3152 21.8051 26.8426 21.2465 25.7025 21.2465H22.4957V21.2465ZM48.8841 21.0644C47.5576 21.0644 46.5311 21.7424 46.1023 22.6628C45.8482 23.2153 45.7609 23.6388 45.731 24.3154H51.7013C51.6247 22.6628 50.8709 21.0644 48.8841 21.0644ZM45.731 26.9414C45.731 28.9149 46.9649 30.3674 49.168 30.3674C50.8821 30.3674 51.734 29.8951 52.7251 28.9149L55.122 31.1902C53.5872 32.6966 51.9769 33.6114 49.1395 33.6114C45.4246 33.6114 41.8694 31.5975 41.8694 25.728C41.8694 20.7129 44.9734 17.8738 49.0522 17.8738C53.1865 17.8738 55.575 21.1977 55.575 25.5515V26.9414H45.731ZM38.5935 33.3481C35.4321 33.3481 34.0907 31.16 34.0907 28.9989V13.9811H37.9654V18.132H40.8863V21.2465H37.9654V28.7575C37.9654 29.6425 38.3857 30.1338 39.31 30.1338H40.8863V33.3481H38.5935ZM15.1621 16.0266H11.2548V12.3364H15.1621V16.0266ZM15.1719 33.5273C12.2459 33.2478 11.2506 31.4832 11.2506 29.447L11.2548 18.132H15.172V33.5273H15.1719ZM61.742 33.2018C58.822 32.9218 57.8314 31.16 57.8314 29.1266V11.8112H61.742V33.2018ZM75.413 14.3136C71.869 -2.86528 38.3287 -3.95281 16.7099 9.13232V10.5769C38.3068 -0.458055 68.9364 -0.393047 71.727 15.4295C72.6607 20.6614 69.6954 26.1162 64.3995 29.2515V33.3537C70.7738 31.0351 77.3111 23.5167 75.413 14.3136ZM36.1149 44.3701C21.1945 45.7413 5.64643 43.5881 3.47091 31.9963C2.40604 26.282 5.02432 20.2244 8.49777 16.4617V14.4497C2.2449 19.9012 -1.14868 26.803 0.804988 34.958C3.29857 45.4153 16.6427 51.3415 37.0103 49.3735C45.0687 48.5915 55.6161 46.0153 62.9488 42.0139V36.3293C56.2952 40.2684 45.285 43.5259 36.1149 44.3701Z" fill="#0071C5"/>
<path d="M66.2622 12.9608C66.2622 12.7723 66.1515 12.7124 65.8984 12.7124H65.6541V13.2459C65.6896 13.2459 65.8671 13.2524 65.8984 13.2524C66.1515 13.2524 66.2622 13.1684 66.2622 12.9919V12.9608V12.9608ZM66.6433 14.2837H66.3538C66.3276 14.2837 66.3047 14.2675 66.2935 14.2457L65.8984 13.5798C65.8914 13.5663 65.8573 13.5501 65.8437 13.5501H65.6663V14.2104C65.6663 14.2457 65.642 14.2837 65.5953 14.2837H65.3333C65.3006 14.2837 65.2679 14.2457 65.2679 14.2104V12.5401C65.2679 12.4435 65.3057 12.4031 65.3879 12.3906C65.4804 12.3785 65.7317 12.3701 65.8671 12.3701C66.3482 12.3701 66.6391 12.5113 66.6391 12.9608V12.9919C66.6391 13.27 66.4999 13.4168 66.2842 13.4888L66.6938 14.1774C66.6964 14.1913 66.7059 14.2104 66.7059 14.2266C66.7059 14.2536 66.6895 14.2837 66.6433 14.2837L66.6433 14.2837ZM65.9558 12.0688C65.2431 12.0688 64.6668 12.6538 64.6668 13.3583C64.6668 14.0636 65.2431 14.6394 65.9558 14.6394C66.6648 14.6394 67.2467 14.0636 67.2467 13.3583C67.2467 12.6538 66.6648 12.0688 65.9558 12.0688ZM65.9558 14.905C65.0899 14.905 64.3992 14.2104 64.3992 13.3583C64.3992 12.5076 65.0899 11.811 65.9558 11.811C66.8124 11.811 67.5162 12.5076 67.5162 13.3583C67.5162 14.2104 66.8124 14.905 65.9558 14.905Z" fill="#0071C5"/>
</g>
<defs>
<clipPath id="clip0_518_2870">
<rect width="76" height="50" fill="white"/>
</clipPath>
</defs>
</svg>
