<svg width="104" height="24" viewBox="0 0 104 24" fill="none" xmlns="http://www.w3.org/2000/svg">
<g clip-path="url(#clip0_518_2116)">
<path fill-rule="evenodd" clip-rule="evenodd" d="M52.0575 6.36076e-06C49.1951 -0.00296524 46.4252 1.03535 44.2443 2.92889C42.0633 4.82242 40.6137 7.4474 40.1554 10.3334C39.6971 13.2194 40.26 16.1778 41.7432 18.6784C43.2264 21.179 45.5329 23.0584 48.2495 23.9798C48.8558 24.0931 49.0702 23.7079 49.0702 23.3831C49.0702 23.0584 49.0702 22.3182 49.0702 21.291C45.7059 22.0387 44.996 19.637 44.996 19.637C44.7728 18.8926 44.2986 18.2531 43.6576 17.8319C42.5707 17.0766 43.7464 17.0766 43.7464 17.0766C44.1274 17.1316 44.4912 17.2744 44.8102 17.4942C45.1292 17.7141 45.395 18.0052 45.5875 18.3455C45.7512 18.6485 45.9717 18.9155 46.2366 19.1312C46.5015 19.347 46.8055 19.5071 47.1311 19.6026C47.4568 19.698 47.7977 19.7268 48.1342 19.6874C48.4708 19.6479 48.7964 19.541 49.0924 19.3726C49.1388 18.7513 49.4011 18.1674 49.8319 17.7262C47.1551 17.4165 44.3453 16.3591 44.3453 11.684C44.3269 10.4627 44.7691 9.28099 45.5802 8.38349C45.2189 7.3216 45.2611 6.15988 45.6985 5.12828C45.6985 5.12828 46.7115 4.79596 49.0111 6.38958C50.9858 5.83579 53.0701 5.83579 55.0448 6.38958C57.3444 4.79596 58.35 5.12828 58.35 5.12828C58.7935 6.14897 58.8462 7.30235 58.4979 8.36083C59.309 9.25834 59.7511 10.4401 59.7328 11.6614C59.7328 16.3893 56.9156 17.4241 54.2314 17.7035C54.5192 17.999 54.7415 18.3543 54.8831 18.7452C55.0247 19.1361 55.0824 19.5536 55.0522 19.9693C55.0522 21.6158 55.0522 22.9451 55.0522 23.3454C55.0522 23.7456 55.2666 24.0553 55.8804 23.9345C58.566 22.9888 60.838 21.1041 62.295 18.6132C63.752 16.1223 64.3002 13.1856 63.8428 10.3219C63.3854 7.45814 61.9518 4.85167 59.7953 2.96295C57.6388 1.07422 54.8982 0.024771 52.0575 6.36076e-06Z" fill="url(#paint0_linear_518_2116)"/>
</g>
<g clip-path="url(#clip1_518_2116)">
<path fill-rule="evenodd" clip-rule="evenodd" d="M80 11.7908C80 5.2781 85.4816 0 91.9919 0C98.4953 0 103.78 5.48618 103.78 11.9965C103.78 18.5069 98.5 23.9884 91.9896 23.9884L80 24V11.7908ZM85.8306 8.13398C87.148 5.9215 89.5323 4.56533 92.1074 4.56381H92.1143C95.0968 4.56526 97.7792 6.37901 98.8915 9.14636C100.004 11.9137 99.3228 15.0793 97.1709 17.1445C95.019 19.2096 91.8281 19.7599 89.1088 18.5347L84.3601 19.6074L85.6825 15.3535C84.4569 13.0889 84.5132 10.3465 85.8306 8.13398Z" fill="url(#paint1_linear_518_2116)"/>
</g>
<g clip-path="url(#clip2_518_2116)">
<path fill-rule="evenodd" clip-rule="evenodd" d="M0 12C0 5.37258 5.37258 0 12 0C18.6274 0 24 5.37258 24 12C24 18.6274 18.6274 24 12 24C5.37258 24 0 18.6274 0 12ZM11.6406 9.75375L11.6658 10.169L11.2461 10.1181C9.71843 9.92323 8.38383 9.26226 7.25067 8.15216L6.69668 7.60135L6.55399 8.0081C6.25181 8.91482 6.44487 9.87239 7.0744 10.5164C7.41015 10.8723 7.33461 10.9232 6.75544 10.7113C6.55399 10.6435 6.37772 10.5927 6.36093 10.6181C6.30218 10.6774 6.50363 11.4486 6.66311 11.7536C6.88134 12.1773 7.32621 12.5925 7.81305 12.8383L8.22435 13.0332L7.73751 13.0417C7.26746 13.0417 7.25067 13.0501 7.30103 13.2281C7.46891 13.7789 8.13201 14.3636 8.87066 14.6178L9.39108 14.7958L8.93781 15.067C8.26631 15.4568 7.4773 15.6771 6.68829 15.694C6.31057 15.7025 6 15.7364 6 15.7618C6 15.8466 7.02404 16.3211 7.61999 16.5075C9.40786 17.0584 11.5315 16.8211 13.1263 15.8805C14.2595 15.211 15.3926 13.8806 15.9214 12.5925C16.2068 11.9062 16.4922 10.652 16.4922 10.0503C16.4922 9.66054 16.5174 9.60969 16.9874 9.14362C17.2644 8.87245 17.5246 8.57586 17.575 8.49112C17.6589 8.33011 17.6505 8.33011 17.2224 8.47417C16.509 8.72839 16.4083 8.6945 16.7608 8.31317C17.021 8.042 17.3316 7.5505 17.3316 7.40645C17.3316 7.38102 17.2057 7.42339 17.063 7.49966C16.9119 7.5844 16.5761 7.71151 16.3243 7.78778L15.8711 7.93184L15.4598 7.65219C15.2331 7.49966 14.9142 7.33018 14.7463 7.27934C14.3182 7.1607 13.6635 7.17765 13.2774 7.31323C12.2282 7.69456 11.5651 8.67755 11.6406 9.75375Z" fill="url(#paint2_linear_518_2116)"/>
</g>
<defs>
<linearGradient id="paint0_linear_518_2116" x1="43.45" y1="3.45" x2="61.107" y2="22.6608" gradientUnits="userSpaceOnUse">
<stop stop-color="#FFAD33"/>
<stop offset="1" stop-color="#FF8A00"/>
</linearGradient>
<linearGradient id="paint1_linear_518_2116" x1="83.4184" y1="3.45" x2="101.088" y2="22.499" gradientUnits="userSpaceOnUse">
<stop stop-color="#FFAD33"/>
<stop offset="1" stop-color="#FF8A00"/>
</linearGradient>
<linearGradient id="paint2_linear_518_2116" x1="3.45" y1="3.45" x2="21.107" y2="22.6608" gradientUnits="userSpaceOnUse">
<stop stop-color="#FFAD33"/>
<stop offset="1" stop-color="#FF8A00"/>
</linearGradient>
<clipPath id="clip0_518_2116">
<rect width="24" height="24" fill="white" transform="translate(40)"/>
</clipPath>
<clipPath id="clip1_518_2116">
<rect width="24" height="24" fill="white" transform="translate(80)"/>
</clipPath>
<clipPath id="clip2_518_2116">
<rect width="24" height="24" fill="white"/>
</clipPath>
</defs>
</svg>
