<svg width="105" height="15" viewBox="0 0 105 15" fill="none" xmlns="http://www.w3.org/2000/svg">
<g clip-path="url(#clip0_518_2875)">
<path d="M99.105 0.108643C99.105 0.108643 99.7456 0.108643 100.013 0.308088C100.013 0.308088 100.282 0.507533 100.489 1.11683L104.969 14.4199C104.969 14.4199 105.031 14.5877 104.98 14.7252C104.98 14.7252 104.928 14.8614 104.7 14.8614H102.801C102.801 14.8614 102.574 14.8614 102.44 14.8091C102.44 14.8091 102.305 14.7569 102.223 14.5258L101.315 11.647H96.0697L95.1615 14.5038C95.1615 14.5038 95.0994 14.6936 94.9859 14.7775C94.9859 14.7775 94.8723 14.8614 94.625 14.8614H92.7249C92.7249 14.8614 92.4979 14.8614 92.4357 14.7252C92.4357 14.7252 92.3749 14.5877 92.4357 14.4199L96.8954 1.11683C96.8954 1.11683 96.9995 0.801873 97.1022 0.613443C97.1022 0.613443 97.2063 0.423626 97.3603 0.319103C97.3603 0.319103 97.5157 0.213193 97.7225 0.160918C97.7225 0.160918 97.9279 0.108643 98.2171 0.108643H99.105ZM98.7131 2.94613H98.6104L97.763 5.86478L96.69 9.45463H100.654L99.5807 5.92666L98.7131 2.94613Z" fill="black"/>
<path d="M56.4676 0.148438C56.4676 0.148438 56.7568 0.148438 56.8595 0.222716C56.8595 0.222716 56.9622 0.295607 56.9622 0.589946L56.9622 6.03932H63.3843V0.589946C63.3843 0.589946 63.3843 0.316223 63.4992 0.232344C63.4992 0.232344 63.6127 0.148438 63.86 0.148438H65.4331C65.4331 0.148438 65.7223 0.148438 65.8156 0.222716C65.8156 0.222716 65.9088 0.295607 65.9088 0.589946V14.4197C65.9088 14.4197 65.9088 14.7141 65.8156 14.7883C65.8156 14.7883 65.7223 14.8612 65.4331 14.8612H63.86C63.86 14.8612 63.6127 14.8612 63.4992 14.7773C63.4992 14.7773 63.3843 14.6934 63.3843 14.4197V8.24412H56.9622V14.4197C56.9622 14.4197 56.9622 14.7141 56.8595 14.7883C56.8595 14.7883 56.7568 14.8612 56.4676 14.8612H54.8999C54.8999 14.8612 54.6729 14.8612 54.5499 14.7773C54.5499 14.7773 54.4256 14.6934 54.4256 14.4197L54.4255 0.589946C54.4256 0.589946 54.4256 0.316223 54.5499 0.232344C54.5499 0.232344 54.6729 0.148438 54.8999 0.148438H56.4676Z" fill="black"/>
<path d="M50.1755 0.148438C50.1755 0.148438 50.4026 0.148437 50.4755 0.232344C50.4755 0.232344 50.5472 0.31761 50.5472 0.548686V2.00248C50.5472 2.00248 50.5472 2.21294 50.4755 2.29682C50.4755 2.29682 50.4026 2.38073 50.1755 2.38073H46.2536V14.4197C46.2536 14.4197 46.2536 14.7141 46.1604 14.7883C46.1604 14.7883 46.0671 14.8612 45.7779 14.8612H44.1643C44.1643 14.8612 43.917 14.8612 43.8035 14.7773C43.8035 14.7773 43.69 14.6934 43.69 14.4197V2.38073H39.8492C39.8492 2.38073 39.6221 2.38073 39.56 2.29682C39.56 2.29682 39.4978 2.21294 39.4978 2.00248L39.4978 0.548686C39.4978 0.548686 39.4978 0.31761 39.56 0.232344C39.56 0.232344 39.6221 0.148438 39.8492 0.148438H50.1755Z" fill="black"/>
<path d="M24.0216 0.0611476C28.0538 0.0611476 31.3199 3.38524 31.3199 7.48901C31.3199 11.59 28.0538 14.9169 24.0216 14.9169H7.9336C7.35835 14.9169 6.89215 14.4424 6.89215 13.8569C6.89215 13.2715 7.35835 12.797 7.9336 12.797H11.6823C12.2548 12.797 12.721 12.3225 12.721 11.7371C12.721 11.1516 12.2548 10.6771 11.6823 10.6771H10.848C10.2728 10.6771 9.80658 10.2027 9.80658 9.61721C9.80658 9.03174 10.2728 8.55727 10.848 8.55727H13.3481C13.9265 8.55563 14.3751 8.07586 14.3895 7.49734C14.3895 6.91188 13.9233 6.4374 13.3481 6.4374H4.59931C4.02406 6.4374 3.55786 5.96293 3.55786 5.37747C3.55786 4.79201 4.02406 4.31753 4.59931 4.31753H11.0553C11.6337 4.3159 12.0823 3.83612 12.0967 3.2576C12.0967 2.67214 11.6305 2.19766 11.0552 2.19766H9.59938C9.02413 2.19766 8.55793 1.72319 8.55793 1.13773C8.55793 0.552269 9.02413 0.0500488 9.59938 0.0500488L24.0216 0.0611476ZM22.8547 2.53618C20.6137 2.53618 18.8007 4.38413 18.8007 6.66215V8.3131C18.8007 10.5939 20.6137 12.4391 22.8547 12.4391C25.093 12.4391 26.9088 10.5939 26.9088 8.3131V6.66215C26.9088 4.38413 25.093 2.53618 22.8547 2.53618ZM24.2397 6.4374C24.7795 6.4374 25.2184 6.88413 25.2184 7.43352V7.56115C25.2184 8.11054 24.7795 8.55727 24.2397 8.55727H21.1971C20.6573 8.55727 20.2184 8.11054 20.2184 7.56115V7.43352C20.2184 6.88413 20.6573 6.4374 21.1971 6.4374H24.2397Z" fill="black"/>
<path d="M4.662 12.7971C5.20454 12.7971 5.64075 13.2411 5.64075 13.7932V13.9209C5.64075 14.4703 5.20454 14.917 4.662 14.917H1.06053C0.520724 14.917 0.0817871 14.4703 0.0817871 13.9209V13.7932C0.0817871 13.2411 0.520724 12.7971 1.06053 12.7971H4.662Z" fill="black"/>
<path d="M80.5056 0.134766C80.5056 0.134766 80.7732 0.134766 80.8461 0.251691C80.8461 0.251691 80.9178 0.367229 80.9178 0.618922V1.94481C80.9178 1.94481 80.9178 2.21853 80.8461 2.31343C80.8461 2.31343 80.7732 2.40832 80.5056 2.40832H75.0134C75.0134 2.40832 74.2282 2.40832 73.9079 2.76457C73.9079 2.76457 73.5889 3.12217 73.5889 3.79337V5.99817H79.8231C79.8231 5.99817 80.0921 5.99817 80.165 6.10408C80.165 6.10408 80.2367 6.2086 80.2367 6.50158V7.65555C80.2367 7.65555 80.2367 7.90724 80.165 8.02142C80.165 8.02142 80.0921 8.13693 79.8231 8.13693H73.5889V11.2082C73.5889 11.2082 73.5889 11.8808 73.9295 12.2274C73.9295 12.2274 74.2701 12.5754 75.0134 12.5754H80.6286C80.6286 12.5754 80.9178 12.5754 80.9908 12.6799C80.9908 12.6799 81.0624 12.7845 81.0624 13.0788V14.3786C81.0624 14.3786 81.0624 14.6097 80.9799 14.7348C80.9799 14.7348 80.8975 14.8613 80.6286 14.8613H74.7444C74.7444 14.8613 73.6498 14.8613 72.947 14.5464C72.947 14.5464 72.2443 14.2314 71.8199 13.706C71.8199 13.706 71.3956 13.1806 71.2307 12.508C71.2307 12.508 71.0645 11.8368 71.0645 11.101V3.91717C71.0645 3.91717 71.0645 3.18132 71.2604 2.49911C71.2604 2.49911 71.4577 1.81554 71.9024 1.29012C71.9024 1.29012 72.347 0.766092 73.0497 0.449749C73.0497 0.449749 73.7538 0.134766 74.7444 0.134766H80.5056Z" fill="black"/>
<path d="M87.7691 0.148438C87.7691 0.148438 88.0569 0.148438 88.161 0.222716C88.161 0.222716 88.2637 0.295607 88.2637 0.589946V14.4197C88.2637 14.4197 88.2637 14.7141 88.161 14.7883C88.161 14.7883 88.0569 14.8612 87.7691 14.8612H86.2014C86.2014 14.8612 85.9541 14.8612 85.8406 14.7773C85.8406 14.7773 85.7271 14.6934 85.7271 14.4197V0.589946C85.7271 0.589946 85.7271 0.316223 85.8406 0.232344C85.8406 0.232344 85.9541 0.148438 86.2014 0.148438H87.7691Z" fill="black"/>
<path d="M6.33039 0.0778809C6.8702 0.0778809 7.30641 0.524606 7.30641 1.07399V1.20441C7.30641 1.75379 6.8702 2.19774 6.33039 2.19774H2.30907C1.76926 2.19774 1.33032 1.75379 1.33032 1.20441V1.07399C1.33032 0.524606 1.76926 0.0778809 2.30907 0.0778809H6.33039Z" fill="black"/>
<path d="M7.57915 8.55737C8.11896 8.55737 8.5579 9.0041 8.5579 9.55349V9.68112C8.5579 10.2305 8.11896 10.6772 7.57915 10.6772H5.37084C4.83103 10.6772 4.39209 10.2305 4.39209 9.68112V9.55349C4.39209 9.0041 4.83103 8.55737 5.37084 8.55737H7.57915Z" fill="black"/>
</g>
<defs>
<clipPath id="clip0_518_2875">
<rect width="105" height="15" fill="white"/>
</clipPath>
</defs>
</svg>
